<svg xmlns="http://www.w3.org/2000/svg" xmlns:xlink="http://www.w3.org/1999/xlink" viewBox="0 0 969.15 992.15"><defs><style>.cls-1{isolation:isolate;}.cls-2{fill:url(#linear-gradient);}.cls-3{fill:url(#linear-gradient-2);}.cls-4{fill:url(#linear-gradient-3);}.cls-5{fill:url(#linear-gradient-4);}.cls-6{fill:url(#linear-gradient-5);}.cls-7{fill:url(#linear-gradient-6);}.cls-8{fill:url(#linear-gradient-7);}.cls-9{fill:url(#linear-gradient-8);}.cls-10{fill:url(#linear-gradient-9);}.cls-11{fill:url(#linear-gradient-10);}.cls-12{fill:url(#linear-gradient-11);}.cls-13{fill:url(#linear-gradient-12);}.cls-14{fill:url(#linear-gradient-13);}.cls-15{fill:#231f20;}.cls-16{fill:#e6e6e6;}.cls-16,.cls-17,.cls-18,.cls-19,.cls-20{mix-blend-mode:multiply;}.cls-17{fill:#4d4d4d;}.cls-18{fill:#999;}.cls-19{fill:#b3b3b3;}.cls-20{fill:#ccc;}</style><linearGradient id="linear-gradient" x1="483.69" y1="931.09" x2="483.69" y2="-44.67" gradientUnits="userSpaceOnUse"><stop offset="0" stop-color="#fff"/><stop offset="1"/></linearGradient><linearGradient id="linear-gradient-2" x1="483.7" y1="931.09" x2="483.7" y2="-44.67" xlink:href="#linear-gradient"/><linearGradient id="linear-gradient-3" x1="882.41" y1="931.09" x2="882.41" y2="-44.67" xlink:href="#linear-gradient"/><linearGradient id="linear-gradient-4" x1="100.95" y1="931.09" x2="100.95" y2="-44.67" xlink:href="#linear-gradient"/><linearGradient id="linear-gradient-5" x1="190.55" y1="931.09" x2="190.55" y2="-44.66" xlink:href="#linear-gradient"/><linearGradient id="linear-gradient-6" x1="478.63" y1="931.09" x2="478.63" y2="-44.66" xlink:href="#linear-gradient"/><linearGradient id="linear-gradient-7" x1="322.48" y1="931.09" x2="322.48" y2="-44.66" xlink:href="#linear-gradient"/><linearGradient id="linear-gradient-8" x1="293.97" y1="931.05" x2="293.97" y2="-41.9" xlink:href="#linear-gradient"/><linearGradient id="linear-gradient-9" x1="569.91" y1="931.12" x2="569.91" y2="-45.24" xlink:href="#linear-gradient"/><linearGradient id="linear-gradient-10" x1="609.69" y1="931.11" x2="609.69" y2="-45.05" xlink:href="#linear-gradient"/><linearGradient id="linear-gradient-11" x1="569.61" y1="931.08" x2="569.61" y2="-44.59" xlink:href="#linear-gradient"/><linearGradient id="linear-gradient-12" x1="642.06" y1="931.09" x2="642.06" y2="-44.67" xlink:href="#linear-gradient"/><linearGradient id="linear-gradient-13" x1="780.97" y1="931.08" x2="780.97" y2="-44.66" xlink:href="#linear-gradient"/></defs><g class="cls-1"><g id="Layer_2" data-name="Layer 2"><g id="Objects"><path class="cls-2" d="M483.59,823.94c-219.34,0-400.43,7.81-419.86,21.31-1.15.8-.66,3.6-.66,4.42,0,14.63,188.32,26.49,420.63,26.49s420.64-11.86,420.64-26.49c0-.46.25-3.53-.11-4C893,831.69,708.64,823.94,483.59,823.94Z"/><ellipse class="cls-3" cx="483.7" cy="846.36" rx="420.64" ry="23.18"/><path class="cls-4" d="M950.62,833.69c-.13-.49-.25-1-.37-1.44,5.79-1.21,11.25-2.42,12.55-2.9,3-1.1,1.82-3.86-.39-4.41s-10.71-1.16-14-1.49c0,.15,0,.32.05.5-1.45-8-1.7-14.23-2.59-20.76-1.22-8.94-9.17-7.73-22.41-9.72s-36.22-.11-45.27,1.11c-.69.09-1.55.2-2.54.31,0-.69-.22-60.17-.22-63.35,0-2.66,2.36-4.48,3.16-5h0l.08,0c13.09,0,78.57,0,81.65.11,3.31.11,5,.11,5.52-1.66s-.88-2.43-2.87-2.54c0,0-68.12.22-76,.22s-44.6.33-49.9,1c-3.41.42-5.77,2-7,4.83a5.15,5.15,0,0,1-1.49-.53c-1.66-.88-3.64-2-5.3-2s-29.59-5.08-25.06.33a23.66,23.66,0,0,0,4.3,1.1c2.81.52,5.52,1,8.31,4,.28.33.53.57.53.57a.64.64,0,0,0,0-.07c.19.23.38.47.57.73a67.29,67.29,0,0,0,5.3,6.18c1.88,2,5,8.39,5.41,11.26.39,2.55-.35,9.86-.52,11.49a20.69,20.69,0,0,0-4.56,3s.66,2.2,1.33,4.41a47,47,0,0,1,1.43,9.61c.22,3.75.11,12.25.22,17.11,0,1.29.05,2.87.12,4.62-7.36,1.06-4.43,2.27.22,3.25.39,4.18,1.29,8.83,3.52,12.67,3.87,6.62,15.68,7.28,21,7.5s21.31-.22,23.08-.22,4.19.11,5.18,1.11,2.88,2.54,4.09,3.64a4.44,4.44,0,0,1,1,1.55c-17.18-.89-33.65-1.77-33.65-1.77l.49,4.09h-.16c-.88.33-4,3.65.33,4,2.75.21,21.12,1.5,34.73,2.4.29,1.49.59,2.94.74,3.61l-.24.11a10.24,10.24,0,0,0-4.81,3.9l-.88.25c-.89.22-4.64.6-11,2.2s-14.14,6.9-16.07,8.28-5.85,5.41-4.91,6.85,3.48,4.86,7.51,2,10-4.48,15.34-4.92,6.4-.77,6.79-.22a24.22,24.22,0,0,1,2.85,6.44c0,1.13-.11,2.18-.2,3.11-.22,2.21-.55,6.3.77,9.61v0c-.86,1.23-1.55,2.66-.76,3.4.66,1.1,2.1,3.64,2.1,4.86a38.63,38.63,0,0,0,.22,8.5,30.27,30.27,0,0,0,5,11.81c2.32,3.2,5,7.73,9.93,8.72,0,0-.44,2.87-2,3.37a44.15,44.15,0,0,1-6.24,1.05c-1.71.22-2.76,1.1-2.76,2.7s.11,2.6-.44,2.87a1.47,1.47,0,0,0-.55,1.88c.38.61.05,1.77-.72,1.88s-.83.66-.83,1.49-.11,1.38-1.05,1.21-4.42-.6-2.92,2,3.14,4.69,3.2,5.52a4.71,4.71,0,0,1-.45,2.65,3.34,3.34,0,0,0,0,2.76,24.47,24.47,0,0,1,1.16,5.08,7.8,7.8,0,0,0,1,3.42c.38.83-.5,1.66,1.43,4.53s16.56,13.91,26.06,7.56c.77.39,4.36,1.55,5.52.17s1.6-2.87,2-3.15,1.6-.5,1.88-1.38,1.1-1.55,1.38-1.27,4.36.77,5.52-5.52-1.11-12-3.15-14.24-3.42-3.15-4.14-3.26c-.05-2.37-2.26-6.4-3.75-7.45,1.65-.77,2.1-1,2.32-2a3.73,3.73,0,0,1-2.76,1.49c1-.61,1.1-.83,1.21-1.22-.94.72-1.44,1-1.77,1s-.55-1.38-.38-1.82a3.84,3.84,0,0,1,.38-.64,6.9,6.9,0,0,0,3.65-2.4c1.1-1.87,1-3.75,1.43-4.63s1.33-2.32,4.53-4.75,8.61-7.62,10.38-10.6,2.09-7.4,1.76-10.93-.44-15.75-.44-15.78c3.89-3.55,13.74-5,20.76-6.41a53.18,53.18,0,0,1,12.69-1.33c1.44,0-1.65-3.53-4.85-8.72S954.16,846.93,950.62,833.69Zm-105-74.18c-1.85,0-3.36.14-4.24.21a1.91,1.91,0,0,1-1.3-.71l.06.14a2.09,2.09,0,0,1-.1-.21.43.43,0,0,0,0,.07,3.8,3.8,0,0,0-.21-.43c-.53-.06-1-.1-1.55-.14a68.89,68.89,0,0,1-1.43-8.14c-.11-2.42.11-5.63.88-7.17s1.66-2.21,2.65-4.75a4.78,4.78,0,0,0,.55-1.91,23.26,23.26,0,0,1,3.87,4.23c1.43,2.21,1.77,3.64,2.21,9A23.63,23.63,0,0,1,845.61,759.51Zm15.17-32.9.06,1.39a1.68,1.68,0,0,1-.61,1.07l-.16,0a4.74,4.74,0,0,1-2.64-.41c-1.37-.66-2.6-1.4-3.62-2Zm11,2.27a11,11,0,0,0-.85,4l.33,62.53c-4.6.49-10.41,1.07-16.1,1.63h0c-1.55-1.33.44-5,.88-6.85a50.78,50.78,0,0,0,.55-7c.11-1.76,1.55-5.41,1.88-6.84s.44-4.31,1-6.62,1.11-3.21,2.1-7.18a9.56,9.56,0,0,0-1.32-.83c.15-3.64,1.44-9.14,1.87-11.32s1.66-5.63,2.76-6.84a13.62,13.62,0,0,0,2.56-3.76,3.84,3.84,0,0,0,.57-.73,6.38,6.38,0,0,0,.79-3c0-.23,0,0-.08.34a29,29,0,0,0-.19-5.86c-.2-1.7-.36-3.13-.45-4,2,0,3.85,0,5.33,0A7.4,7.4,0,0,0,871.74,728.88Z"/><path class="cls-5" d="M197.59,764.88c-1.49-.66-10.6-4-14.41-4s-11.26,2.82-13.74,3.48-9.61,2.49-11.59,4.31a38.13,38.13,0,0,0-.67,6.46,20.55,20.55,0,0,1,1.33,3c.5,1.49-2,.66-2,.66s0-.64.14-1.65c.05-.19.06-.3,0-.35.32-3.69,1-11.41,1.65-13.9.83-3.31,1.66-11.26,1.66-11.26s-7.95-4.14-9.94-4.64c-1.52-.38-3.71-1-4.66-1.34,0-1.72,0-2.91,0-3.41a3.83,3.83,0,0,1,1.51-1.71c1.45-.86,3.51-2.24,5.58-3.46h0l.45-.27a29.47,29.47,0,0,1,3.75-1.9c3-1.16,4.8-1.65,5.3-3.47s-1.49-1.83-2.16-2.16c-.32-.16-8.85,0-17.35.21a9.78,9.78,0,0,0-7.55-3.62H10.18A2.57,2.57,0,0,0,8,728.5c0,2.37,3,2.23,5.08,2.19,1.85,0,58.72-.46,74.77-.19l4.59.24c3.37.58,7.72,1.87,7.2,11.73-.55,10.25-1.7,54.73-1.73,55.81l-.81-.12c-7.78-1.15-42.73-4.3-56.14-3S25.53,807.27,25,812c-.46,4.42-.35,7.81-1.7,17v0s-11.38.45-14.14.89-4.53,4.31-1.11,5.19c1.64.43,7.6,1.63,13.53,2.82a100.92,100.92,0,0,1-8.67,22A140,140,0,0,1,2.68,875.5c-.62.82-1.5,1.16,1.65,1,1.94-.11,5.88.61,10.79,1.88a13,13,0,0,0,1.69,5.18c.55.72.6,2.76,1.54,4.86s3.32,4.86,3.65,5.63,1,1.55.93,2.1a2.13,2.13,0,0,0,.17,1.43,2,2,0,0,0,.4.53L23,899.24l.3.14c-.35.34-1.34-.31-3.23-.31s-2,2.16-2.76,3.26-2.65,1.88-5.13,6.74,1.33,6.62,2.76,7.94.66,3.81-2.37,7.9-.89,6.29.71,6.84a2.8,2.8,0,0,1,2.21,2.65c.17,1.27-.88,2.32,2.82,8.72s11.76,9,13.74,9.06a31.23,31.23,0,0,1,5.14.55c8.33,2.26,10.87-.94,13.58-2.65s6.22-4.74,7.73-7.18c.83-1.35-.17-3.9-.52-4.39,1.57-3,2.13-7.18,2.56-8.14s1-1.32.81-2.37c-.15-.87.17-.87.17-.87l3.18-.66a6.58,6.58,0,0,0,.13-1.29c0-.7,0-.91-.29-.95-.13-2.57-1.78-3.19-2.4-3.73-.17-.91.41-2.19.58-3.18s-1.08-1.45-1.58-1.87c-.16-.41.38-1.57.21-2s-.5-1-1.16-1c.13-.29.29-.66.54-1.32a2.68,2.68,0,0,0-.46-2.07c-.29-.41.05-2.82.05-2.82,0-2.53-3.1-2.59-4.31-2.81A5.28,5.28,0,0,1,53.63,902a43,43,0,0,0,9.88-2.54c5.52-2.1,6.51-5.74,8.61-9.05s2.54-3.54,6.29-7.95,4.31-7.4,4.53-8.72,4.75-6.63,6.84-8a16.31,16.31,0,0,0,3.76-3.87c.55-.55,1.87-2,2.76-3s1.65-1,2.87-1.32,2.76-2.32,4.3-3.65a29.25,29.25,0,0,0,5.19-6.07,19,19,0,0,0,1.33-5,23.91,23.91,0,0,1-5.41.22l-.52,0,14.21-.77c4-.19,17.72-1.29,21.29-2.7a9.32,9.32,0,0,0,2.55-1.59,21.91,21.91,0,0,0,7.46-.81c4.47-1.49,6-6.46,9.1-12.75S166,807.44,168,803.79s2.15-9.43,4-11.59,3.15-7.45,3.81-9.11a1.72,1.72,0,0,0-.66-2.31s3-2.49,5.13-4,5.47-4.47,9.94-4.64,7.62.83,9.11-2.31S199.08,765.54,197.59,764.88ZM22.51,834l-1.81-.39,1.85.1.16-.75C22.65,833.25,22.58,833.6,22.51,834Zm.48-2.66c0,.27-.1.55-.14.82h0c.05-.26.11-.58.16-.92Zm39.19,90.14c2.32.33,1.66,3.2,1.66,3.2a5.08,5.08,0,0,1-2.21.55C60.75,925.07,62.18,921.43,62.18,921.43Zm-4.3,17.24c0,.1.06.21.11.37.88,2.7-2.32,2.21-2.32,2.21A6.73,6.73,0,0,0,57.88,938.67ZM128,744.51a58.87,58.87,0,0,0-1.33,8.78c0,2.81,1,7.61.83,9.77s-1,8.6-1.16,10a13.67,13.67,0,0,0,.17,5.72c.66,2-1.49,2.75-2.32,4.85s.33,3.6.5,5.5a7.39,7.39,0,0,1-1.66,6c-.68.81-1.87,2.45-3.18,4.17a28.78,28.78,0,0,0-6.69.65c-3-.17-6.73-.57-10.46-1,0-1.42,1-43,1-51,0-4.82.27-8.65-.28-11.89a11.66,11.66,0,0,0-2.59-5.89c4.31,0,16.27-.09,24.3-.08-.39.8-1.77,4.21.1,9.24,1,2.49,1.33,2.32,2.82,2.32C128.7,742.85,128,743.68,128,744.51Z"/><path class="cls-6" d="M269.08,794.58l.08.27s-.91-5.55-1.66-12.34-.91-10.43-1.24-14.57c-.15-1.87-.44-3.88-.79-5.94-.08-.52-.17-1-.27-1.55-.31-1.7-.65-3.42-1-5.13-.6-3.59-1.17-7.8-1.56-10.69-.12-1.09-.22-1.94-.29-2.36l-.06-.31c-.05-.39-.09-.65-.11-.76-.11-.66-.28-1.09-1-1.32h0l-.38-.09c0-2.47,0-4.25,0-5.13,1.9-.6,4.6-1.27,6.06-1.57,6.4-1.32,4-5.08,4-5.08s-5.65-.13-9.38-.13l-2.45,0-.51-.23a8.13,8.13,0,0,0-4.77-2.49c-6.18-1.1-140-.55-140-.55-1.24.14-3.09.47-3,2.62.17,3.31,4.42,2.46,4.42,2.46s47,.33,52.33.44,4.74,9.83,4.74,9.83l.45,61.3c-5.74.25-12.46,1-18.79,1.78a19,19,0,0,0-1.5-2.11c-1.33-1.58-3.64-1.82-7.78-.25a88,88,0,0,0-9.17,4.54h-.19c-8.61.58-10,7.12-10.27,10.27s-.83,15.15-1.32,21c0,.2-.05.39-.07.59-.75.07-8.41.78-10.09,1s-3.09.88-3.64,2.09c-.89,4.42,4.3,4,4.3,4l8.48.35a175.76,175.76,0,0,1-13.23,45,224.15,224.15,0,0,1,34.58-.08,14.55,14.55,0,0,1,.12,4.05c-.14.74-.34,1.45-.54,2.14a12.12,12.12,0,0,0-.45,1.34,1.08,1.08,0,0,1,.16-.29,9.11,9.11,0,0,0-.33,1.86c-.08,1.57-.41,4.72-.75,8s-.16,8.2.42,9.44a12.45,12.45,0,0,0,3.72,3.73c1.33.91,2.82,2.56,4.81,4.22s6,3.23,9.44,5.63c3.09,2.19,6.31,5.12,8.43,5.94a.3.3,0,0,0-.07.1,37.34,37.34,0,0,0-1.08,6.71c-.16,1.66-.22,4.56-.41,7.29a44.83,44.83,0,0,0,.08,10.1c1.08,8.78,8.7,11.59,11.76,12.17s8.11-.5,9.11-1.16c1.16,1,6.95,2,13.08.47s10.76-6.68,13-11.56a24.32,24.32,0,0,0,2.07-9.61,13.74,13.74,0,0,1,.25-3.23,9.94,9.94,0,0,0-.25-2.65c.25-.74,1.82-2.32,3.15-4.06a2.28,2.28,0,0,0-.5-3.56,9.47,9.47,0,0,1-1.74-1.4c-.25-.33.17-1,.25-1.58a3,3,0,0,0-.5-2.4,2,2,0,0,0-.07-1.56,9.66,9.66,0,0,0,5.62-4c2-3,3.31-8.11,1.66-14.4.58-1.08,1.46-2.17,1.9-3.15a23.29,23.29,0,0,1,2-4.06,16,16,0,0,1,2.81-3.39,37.6,37.6,0,0,0,4.31-5,35.34,35.34,0,0,1,4.31-4.31,45.47,45.47,0,0,1,3.72-2.65c2.24-1.6,3.95-1.37,6.63-.82a70,70,0,0,1,7.53,1.65c1.46.55,5.8,1.91,5.8,1.91a36.53,36.53,0,0,0,2.48-19.63c-1.74-1.32-5.13-1.4-6.54-2.32a12.5,12.5,0,0,0-5.47-1.49c-2-.16-4.8.09-6.29-.41s-7.37-1-11,.41c-4,1.58-9.11,5.47-12.59,8a23.53,23.53,0,0,0-4.88,4.39s-1.47-6.21-2.41-10.93c-.27-3.15-.31-6.81-.77-9.24-.66-3.54.59-6.11.67-8.84a10.71,10.71,0,0,1,.17-1.63c2-.12,3.95-.41,5.24-.49,2.48-.17,23.76-3.48,27.49-4s8.52-.82,11.17-4.88,3.07-8,2.9-9.19a2.1,2.1,0,0,0-3.37-1c.08-.81.13-1.61.16-2.38a41.54,41.54,0,0,0,4.87-2.26c4.55-2.65,6.13-8.12,6.37-12.18s-1.07-10.26-1.49-12.42C269.87,799.36,269.48,797,269.08,794.58Zm-68.8-57.28h-.34c-.08,0-.06.1,0,.22a8.79,8.79,0,0,0-1.09,2.27c-.58,1.57-2.9,2.73-3.64,4.55a20,20,0,0,0-1,7.29c.17,1.9-.74,5.63-1.65,8.61s-2.73,17.14-3.31,18.88-1,7.78-1.83,11.34a108.33,108.33,0,0,1-3.88,10.89c-1.89-.09-3.8-.17-5.72-.2h-.5c0-.21,0-58.35-.22-64.08a18,18,0,0,0-.91-5.23,5.23,5.23,0,0,0-1.52-2.94l24.55.3a13.54,13.54,0,0,0,0,1.74,17.11,17.11,0,0,0,1.25,4.39C200.84,736.3,200.6,737.28,200.28,737.3Zm13.57,67.05c.28-2.19.43-5.76.58-7.34.16-1.74-.09-10.19.25-12.51a36,36,0,0,0,.08-6.62c-.08-2,2-9.77,2.9-12.51a27.56,27.56,0,0,0,1.24-7.86c.08-2.4,3.15-7.37,3.48-8.86a39.35,39.35,0,0,0,.33-5.3,2.45,2.45,0,0,0-1.82-2.24c-.5-.08-1.58.17-1.74-1.74s2.56-5.21,3.64-6.54a14.39,14.39,0,0,0,1.74-3.34l4,0a11.33,11.33,0,0,0-.49,6.2c1.05,6.33,3.31,4.81,3.9,9-.55.23-.84.44-.84.63,0,.41.25.88.69,5.3s4.64,17.77,5.52,21.41a111.61,111.61,0,0,1,2,16c0,2.87,1.88,11.15,1.76,13.69s-1.43,2.65-3.42,3.09c-1.76.39-4.9.87-7.28,1.21Zm35.35,32.4s-20.13,2.51-31.51,3.82a1.22,1.22,0,0,1,.3-.42c.12-.09.48-.3,1-.58,4.13-.82,10.14-2.12,16.56-3.81s13.82-4,19.8-6.15C254.45,836,249.2,836.75,249.2,836.75Zm7.06-97.29c-1.09,0-2.17.1-3.21.22a7.52,7.52,0,0,1,3.22-3.3C256.26,737.09,256.26,738.14,256.26,739.46Z"/><path class="cls-7" d="M548.12,874.81a4.52,4.52,0,0,0-3.92-1H544c-.59-6.19-1.17-15.06-1.61-22.57,1.52,0,7.12-.14,8.45-1.76a3.65,3.65,0,0,0-1.21-5.41,68,68,0,0,0-7.73-1.69c-.09-1.76-.17-3.19-.22-4.16-.08-1.47-.14-3.4-.19-5.53a133.64,133.64,0,0,0,2.4-15.73c.55-7.39,1.1-14.9,1.43-18.1.24-2.3.47-3.74-.31-5.15,0-.4-.22-.75-1.07-1.5-1.57-1.41-5.13-4.31-7.45-4.81a8.45,8.45,0,0,0-4,0h0l-.12,0-.14,0-.1,0-.63-54.29s0-4.14,1.55-4.25,14.57.11,14.57.11,3.31.11,3.42-2-.22-3.53-3.86-3.86-112.94,0-114.16-.11-5.74-.11-5.74-.11-3.75.22-3.75,3.86l.32,82.64a98.75,98.75,0,0,0-3.75,10.15c-.66,2,.43,6.86,2.31,8.85a10.39,10.39,0,0,0,1.52,1.28v2.84h-.08s-2.28.18-2.28,3.49.61,9.38,1.82,10.93a36.16,36.16,0,0,0,4.31,4.14c.88.77,2.76,2.26,4.3,2.15s6.52.78,6.61-1.36l1.61,0c.09,2.46.19,5,.3,7.52-1.59-.09-4.06-.49-6.4-.57-3.1-.11-7-.56-9.39-.89-1.32-.18-4.19.33-5.19,2s-5,9.27-5.41,9.72c-.15.15-.12.76,0,1.56a2.17,2.17,0,0,0-.35.81c0,.09,0,.23,0,.37-.34.18-1.45.88-2,1.18a9,9,0,0,1-3.87.38,1.87,1.87,0,0,0-2.31,1.33,3.35,3.35,0,0,0,.55,2.65c.44.77.16,1.16-1.11,1.49s-1.21,2.26-1.15,3.2-.83,4.47,1.1,3.59,1.53-2.64,1.75-3.08,1.51-.46,3.27.1c2.27.6,1.27,1.87.78,2.76a6.36,6.36,0,0,1-2.32,2.2,24.63,24.63,0,0,0-3.7,2.93c-1.33,1.21-1.66,2.87-1.38,3.31s.66,1,2.15.55a12.36,12.36,0,0,0,4.64-3.2c1.65-1.6,3.72-2.29,7.28-4.36a22.34,22.34,0,0,0,5.54-4.71h.09l1-.73c.76.32,1.07.45,1.36.37.45-.11,1.44,1.22,2.65,2.54a11.83,11.83,0,0,1,2.65,4.86c.78,2.32,2.76,4.42,4.75,6.73a21.16,21.16,0,0,1,4.2,6.63c1.1,2.76,1.87,2.65,1.87,5.63a47.26,47.26,0,0,0,1.11,10.49c.77,2.87,1.21,4.3,2.09,7.17s2.65,8.17,3.43,9.72,3.09,3.53,5.19,3.09c1.68.69,7.6,2.89,13.52,5.07a34.92,34.92,0,0,0-2.54,4.59c-1.08,1.16-1.32,2.32.25,2.48a1.83,1.83,0,0,0-1.16,2.41c.5,1.49,1.41,3,1.16,3.47A1.54,1.54,0,0,1,463,958c-.83-.09-2.9.91-1.32,3.89s4.88,5.63,5.38,6.54.25,1.49.75,2.32a5.15,5.15,0,0,1,.33,3c-.09,1.07-.5,2.81.66,3.64.25,2,2.07,14.08,16.81,14.74,5.05.17,12.25.33,18.88-6s5-17.39,3.56-21.12c-1.22-3.23-3.19-8.76-3.69-10.66l.18-.07c.78-1.44,4.64-6.41,6.41-7.18s4.74-1.88,5.41-2.65a14.46,14.46,0,0,1,4-2.54c1.1-.44,11.37-4.75,14.35-6.29s4.75-1.77,6.41-4.64,2.09-6.07,2.43-9.49.55-3.76.44-6.08.55-3.2.88-5,.55-2,2-5.51,4.41-8.73,5.85-13.58,1.54-8.4.11-11A16.33,16.33,0,0,0,548.12,874.81ZM481,728.4a5.17,5.17,0,0,0,.64,2.13,3.45,3.45,0,0,1,0,2.09,7,7,0,0,1-.28.72l.06.06v0a14.38,14.38,0,0,0-2.75-1.81c-1.88-1-4.42-.44-5.63-1.54a20.48,20.48,0,0,1-1.52-1.71Zm-43.3,118.53a17.59,17.59,0,0,1-6.22-3.23c-.68-2.24-.94-6.53-1.08-9.77a.19.19,0,0,1,0-.08c.84.57,1.67,1.15,2.46,1.78a38,38,0,0,0,7,4.19c.07,2.31.15,4.78.24,7.36A19.63,19.63,0,0,1,437.68,846.93Zm14.68-102.6c-2.43-.88-4.19-1-5-.55-.13,0-.2.1-.22.17-.63.63-1,2.33-2.43,5.9-1.54,4-2.87,7.62-3.75,10.82s-3.86,12.14-5.08,14.46-1.76,7-2.76,9.83c-.79,2.27-3,6.69-4.75,10.9-.21-25.64-.47-55.31-.53-63,0-1.16,0-2.13,0-2.31a3.43,3.43,0,0,1,.09-.48c0-.06,0-.11,0-.17l0-.05.06-.19a.14.14,0,0,0,0-.06l.08-.18,0-.08.07-.13a2.08,2.08,0,0,1,2.07-1.09c1.4.07,4.29.05,6.05,0,1.28,0,3.55,0,6.56.07,2.15,1.36,5.78,2.9,7.05,3.92a22.49,22.49,0,0,1,4.86,5.3c1.22,2,3,5.3,4.09,7.62a3.68,3.68,0,0,1,0,2.37l-.46-.24a14.56,14.56,0,0,0-3.07-1.56l-.09,0C454.06,745,453,744.56,452.36,744.33Zm32,56.66c-.1.75-.31,2.1-.45,3a299.12,299.12,0,0,0-30.61,2.84,18.63,18.63,0,0,1,.68-1.78c.12-.24.26-.48.41-.75a28.93,28.93,0,0,0,1.92-4.17l.29-.58a9.7,9.7,0,0,0,.95-3.73,9.47,9.47,0,0,0,.15-2.23c0-.44-.07-.82-.1-1.17a4,4,0,0,1,.85-2.82,9.57,9.57,0,0,1,1.24-1c2.54-1.77,2.65-3.86,3-6.18,0-.14.05-.26.08-.39a31.15,31.15,0,0,1,2.46-4.25l.16-.26.39-.51c1.21-1.66,2-5.41,2-7.18s2.54-4.19,3.75-6.18,3-5,3-5a2.42,2.42,0,0,0-.32-.36c1.18-1.23,2.83-1.06,4.19-1.74,1.54-.77,3.21-3.49,3.76-4.59l.32-.62c0,2,.07,4.74.21,6.22.22,2.43,1.21,8.28,1.1,11.92s.66,6.63.22,10.16.57,8.6.46,10.48a29.4,29.4,0,0,0,.11,7A14.79,14.79,0,0,1,484.32,801ZM528,729.07a6.64,6.64,0,0,0-.82,3.74v.53c.06,2,.57,34,.91,55.18a8.21,8.21,0,0,0-1.94.86l0,0h0a3.59,3.59,0,0,0-1.12,1,8.75,8.75,0,0,0-1.9,3.94,10.1,10.1,0,0,0-.37,3.2c.16,2.63,1,6.63,1.07,8.84l-.24,0c-4.06-.77-8.23-1.33-12.44-1.73v0h.2s-.5-2.15-.83-4-.75-6.63-1-9.36-1.49-10.85-2.23-15-2-9.27-2-9.27l0,.08c-.24-1.19-.44-2.34-.56-3.42-.33-3.09-1-10-1.43-12.48s-1.88-4.52-1.55-7.5-.33-4.09-.33-4.09l-.49-.07s0-.1.05-.15c.77-2.32,1.77-5.52,3.64-7.62a25.81,25.81,0,0,0,2.53-3.18l21.43,0A1.89,1.89,0,0,0,528,729.07Z"/><path class="cls-8" d="M399.59,869.87a1.27,1.27,0,0,0,0-.22c.13-.49.24-1,.33-1.54a4.73,4.73,0,0,0-1.21-3.65,20.69,20.69,0,0,0-6-4.86c-2.54-1.32-13.25-4.63-16.45-5.74-2-.67-4.69-.4-7,.17,1.9-.61,3.06-1.23,4.55-1.71,2.57-.83,12.42-4.64,12.42-4.64a6.36,6.36,0,0,0,3.48-4.72c.83-3.73,1.41-8.69,1-10-.27-.88-2.16-1.25-3.95-1.42.21-25.55.56-97.36.56-97.36s.16-7-3.4-9.61c-1.07-.82-4.14-1-5.21-1L247.55,724a2.45,2.45,0,0,0-2.9,2.65c.08,2.49,1.57,2.57,3.23,2.57L280,729a.68.68,0,0,1,.55.09h0c.46.26,1.08,1.08,1.42,3.56.56,4.07,0,70.25,0,74.84-10.07.83-17.86,1.89-20.79,2.41-5.55,1-5,11.18-5,16.4-.05,3.41-.18,9-.72,17.56-.71.13-7.73,1.45-9.38,2.48a3.19,3.19,0,0,0-1.49,4.3c.74,1.65,3.2,2.07,10.22,2.15q-.27,3.35-.62,7.12c-1.65,18.06-7.12,40.91-7.12,40.91,16.87-1,33.37-1,48-.52.18,1.45.53,4.24.77,6.21a36.12,36.12,0,0,1,.55,6.51,12.72,12.72,0,0,0,.24,3.19,5.6,5.6,0,0,0,.1.59,4.4,4.4,0,0,0-2.62,1.49c.62-.64,1.86-.64,3.09-.19a9.49,9.49,0,0,0,3.35,4.3c.18,1.65,0,3.75.31,6.46.49,4.47,2.33,6.33,3,6.9a3.27,3.27,0,0,1,1,3.15c-.94,6.79,4.58,8.17,5.91,9.11s2.68,1.24,3,2.2a4.91,4.91,0,0,0,2.33,3.26c.55.33,1.86.94,1.36,1.16s-1.1,0-2.42-1.27c.11.55.26,1.05,1.54,1.6,3.09,1.33,1.34,1.74,3.42,4.86,1.33,2,4.2,4.14,6.19,4.08s3.2-.12,3.2-.12c.41.37,0,2.44,3.31,8.07s11.38,7.7,19.54,6.67,12.3-4,14.57-6.13,2-3.81,2-4.35-.12-.49.5-1.69a12.54,12.54,0,0,0,1-5.22,22.06,22.06,0,0,1,.29-4.76c.21-.58-.12-1.24-.25-1.91a5.14,5.14,0,0,1,.34-2.64c.37-.92,2.6-4.48,3.1-5.59s1.16-2.2.75-3.36-2.45-.87-3.65-.91-.95-1.82-.87-2.15-.16-.79-.66-1.2c.25-.79.46-1.62-.74-2s-1.12-2.07-1-2.86a4.17,4.17,0,0,0-.41-2.81,3.2,3.2,0,0,0-2.39-1.06,11.41,11.41,0,0,0,6.65-6.94,16.88,16.88,0,0,0,1-9.06,17.25,17.25,0,0,1-.22-4.08c.11-1.55-.44-2.87-.77-4.75s.11-3.86.11-5.74,1-5.63,1.66-9.39,1.54-6.4,2-9.27.34-3.64,1-4.86c.2-.37.37-.71.55-1a6.37,6.37,0,0,1,.91-.81c.56-.41,1.75-.06,2.58.27a4.41,4.41,0,0,0,1.59.56c1.54.22,2.76-.22,2.81.77,0,0,0,.87,0,1.66,0,1.38,2.1,2.4,2.71,1.63s1.16-.49,1.93.3c.44.44.72,1.6,1.6,1.71,1.5.18,1.56-.65,2.51-.94a5.73,5.73,0,0,1,1.68-.4,3.07,3.07,0,0,0,2.63-1.65c.66-1.28,1.43-1,1.93-1.76a4.75,4.75,0,0,0,.86-4.41C400.12,870.91,399.8,870.27,399.59,869.87Zm-76.92-141,8.81-.09a26.11,26.11,0,0,1-5.19,2.52c-1.65.5-3,.58-3.39,0A6.39,6.39,0,0,1,322.67,728.91Zm20.18,75.63c-1.48.59-4.25,1.78-6.15,2.58-7.09-.36-15.33-.63-24.07-.76-9.14-.13-18.29.25-26.33.82l.41-70.87s0-1.1-.1-2.46c0,0,0-.2,0-.66a9.71,9.71,0,0,0-.59-2.92,3.22,3.22,0,0,0-.4-.91c1.38-.08,16.22-.24,31.79-.4a5.89,5.89,0,0,1,0,.73,14.25,14.25,0,0,1-.58,4.22c-3.39,7.37,2.9,12.42,2.9,12.42l1,.11,2.2,2.43c1.17,1.28,2.25,3.82,3.67,8.44,0,0-.06.08-.08.12a6.1,6.1,0,0,0-.91,3.64c.16,1.76,1.51,2.71,3.21,4,.8,2.93,1.69,6.32,2.73,10.25,5.07,19.32,10.84,23.68,12.44,25.61.42.5.84.95,1.13,1.35S345.12,803.64,342.85,804.54Zm3.52-41.7a13.06,13.06,0,0,1,5.84-3.92c3-1,5.63-1.66,6.79-3.65,2.57-3.23-5.46-6.95-10.27-6.95a16.81,16.81,0,0,0-8,2,7.37,7.37,0,0,1,.43-5c.66-1.74,3.8-5.22,5.87-7s8-6.71,10.85-8.28a5.73,5.73,0,0,0,1.8-1.42h1.84c1.74,0,18.39.25,18.39.25s2.73-.41,2.73,7.12c0,5-.4,46.83-.67,74.85l-4.11,0a13.35,13.35,0,0,0-.66-1.28.92.92,0,0,1-.07.13c-1.28-7.56-9.11-17.38-16.1-26.63C353.82,773.61,350.35,769.6,346.37,762.84Zm19.31,92.46c-2.1,1.1-5.52,6.51-7.62,9.38a20.06,20.06,0,0,1-1-6.62,3.11,3.11,0,0,0,.06-.44c0-.71.06-2.09.07-3.29,0-.2,0-.39,0-.58v-.23c.87,1.08,2.69,2.33,6.37,1.78a41.3,41.3,0,0,0,4.09-.8A13.53,13.53,0,0,0,365.68,855.3Zm-1.45-9.49-6.68,2a9.41,9.41,0,0,1,.84-2.87c1.11-2,4.2-8.72,5.52-12.14l1.88-4.86s2.5-1.21,4.93-2.58a16,16,0,0,0,3.25-2l.1-.08c2.57-1.9,5-6.46,4.8-8.77,0-.14,0-.29,0-.43h0l3,.2c-.07,7.25-.13,13.33-.17,17.24-1.23.25-2.3.86-2.44,2.27-.25,2.4-.58,6-1.66,6.87C376.74,841.4,368.36,844.42,364.23,845.81Z"/><path class="cls-9" d="M294.07,918.31a2.35,2.35,0,0,0-.19.25A1,1,0,0,1,294.07,918.31Z"/><path class="cls-10" d="M570.2,875.72a5.23,5.23,0,0,0-.57,1.09A7.91,7.91,0,0,1,570.2,875.72Z"/><path class="cls-11" d="M609.37,882.54c.56.78.8,1.2.52.69A3.12,3.12,0,0,0,609.37,882.54Z"/><path class="cls-12" d="M569.63,876.81a.48.48,0,0,0,0,.13Z"/><path class="cls-13" d="M713.73,841.39c-1.11-.56-4-.17-6-.17l-2.75.06c-.37-3.26-.67-6.28-.83-8.73-.67-9.6.11-20.09-2.76-24.51s-15-4.3-19.21-4.63c-.55,0-2.07-.13-4.34-.23l-.41-66.9s-.22-7.61,1.43-8.17c2.87-.22,30.59-.22,30.59-.22s3.53,0,3.75-2.2-1.11-3-4-2.88-123.44.49-125.42.56c-3.43.11-9.39-1.44-9.72,9.6,0,0,1.53,76.38,2.13,97.06a5.56,5.56,0,0,0-1.25.1c-.55.22-.55,1.76-.44,4.08s.44,9.39,4.64,11.26,13.91,4.09,16.45,4.64,8.06,1.1,9.49-.77c.61-.8.54-1.28.21-1.66a20.92,20.92,0,0,0,2.88.43,1.77,1.77,0,0,0,0,.23c.07,4.75,2,21.62,4.1,34.53-.06,2.27-.35,4-.9,3.12s-1.49-2.42-2.63-4a5.51,5.51,0,0,1,.56.5c-1-1.43-3.15-4.07-5.22-4.5-.7-.14-1.33-.24-1.92-.32a31.1,31.1,0,0,1-3.77-.87,1.25,1.25,0,0,1-.27-.24c-.77-1-2.43-4.09-3.31-4.42-.14-.05-.4-.12-.75-.21h0a24.62,24.62,0,0,0-5.16-1c-1.35-.21-2.7-.38-3.78-.46a34.86,34.86,0,0,0-8.39.75,11,11,0,0,0-2.21.62,6.41,6.41,0,0,0-2.76,1.61,20.44,20.44,0,0,0-1.6,2.21l.17-.24a9.9,9.9,0,0,0-.77,1.46c-.56,1.21.11,2,.55,4s.88,5,1.87,5.74,5.08,2.21,7,3.42,4.64,6.19,7.06,9.5,4.64,6.73,8.28,11.26a70.22,70.22,0,0,0,7.95,8.39c1.33,1.22,1.55,3.09,2.21,4s3.65,3,7.07,4.74,9.49,4.31,12.47,5.74a25.66,25.66,0,0,0,3.31,1.33,62.77,62.77,0,0,1-1.87,6.51c-.77,1.88-1.66,5.08-.66,7.51s.71,2.15.44,2.87a2.63,2.63,0,0,0,.16,2,3.42,3.42,0,0,1-.27,2.27c-.67,1.18.06,2,.25,2.76.41,1.65.63,1.54.58,1.87a10.1,10.1,0,0,0,.22,8.84c2.43,4.47,12.09,18,23.57,13.69,1,.77,9.66,2.81,15.9-6.08s6-12.47,4.36-20.92c-1.52-8-3.44-13.19-5.76-15.92.08-.07.17-.13.24-.2,1.74-1.68.6-3.69,1.49-3.81s4.63-1.65,8.17-2.42,6-.45,8.39-1.66,6.51-3.31,9.16-6,3.75-4.86,5.52-10.27,4.64-17.55,5.63-21.64c.13-.52.25-1.07.36-1.64a89.5,89.5,0,0,1,10.79.54c-.22-3.43-2.87-15.79-4.75-24.4-1.19-5.49-2.66-14.88-3.73-23.46h.26s4.92-.11,7.08-.38A2,2,0,0,0,713.73,841.39ZM603.1,842.71c-4.33-.86-17.72-4.19-18.93-4.86-.26-.14-.57-.26-.88-.42a6.39,6.39,0,0,1-.58-.36c-.1-1.39-.13-3.21-.2-4.52-.11-2,.22-2.2-1.88-2.42h-.13c-.06-3.24-.16-10.07-.28-18.69.06.35.12.66.19.92.56,2,1.55,3,3.87,5.08,2.05,1.86,9.27,8.06,11.59,10.16s6.63,4.09,9.09,6.35c-.34,2,0,5,1.61,9.33C605.44,843.13,604.27,843,603.1,842.71Zm2-89c-1.11,2.81-.69,3.66-.69,3.66s.32.21.91.66a155,155,0,0,0-6.65,15.24c-2,5.41-7.51,9.6-10.49,13.47a50,50,0,0,0-7.4,15.45,29.13,29.13,0,0,0-.61,3.51l-1-73s0-.48,0-1.11c0,0,0,0,0,0a2.88,2.88,0,0,1,0-.33,4.75,4.75,0,0,1,.76-2.42,1.62,1.62,0,0,1,.71-.44,1,1,0,0,1,.26,0l14,0a8.85,8.85,0,0,0-2.21,2.69c-1.22,2.54,1.54,4.53,4.08,6.41s7.07,5.08,7.84,5.85,3.42,3.31,3.42,4.08A44.26,44.26,0,0,0,605.06,753.71Zm11.73-25.39a9.29,9.29,0,0,0,1.27,1.34,16.05,16.05,0,0,1,3.86,5.41,12.73,12.73,0,0,1,1.11,4.75l-1.66-1.66c-.64-.64-1-.73-1.37-.46-.9-1.27-1.85-2.59-2.49-3.62-1.44-2.32-1-2.21-1.66-4.2a9.64,9.64,0,0,0-.68-1.55Zm4.64,75.45c-2.08-1-5.81-1.87-6.46-3-.88-1.55-.11-2.43,2.21-4.2s5.63-8.61,7.28-11.37c.21-.34.41-.69.6-1a16.61,16.61,0,0,1,2.94,4.57c.63,2.45,7.49,9.27,9,13.62l.17.53v.06C631.94,803.11,626.61,803.37,621.43,803.77Zm51.39-66.16c.11,6.66.48,62.48.5,65.4l-1.51,0a53.74,53.74,0,0,0-5.94-9.6c-.17-.18-.35-.38-.52-.58-1.27-1.72-2.41-3.19-3-4.06-.15-.23-.3-.45-.43-.66a20.92,20.92,0,0,0-3.26-3.74c-.46-.52-1-1.13-1.6-1.89-.92-1.14-2-2.29-3-3.35-2.67-3-4.16-3.89-6-6.25-2.21-2.76-3-3.32-5.41-6.07-.42-.49-.74-.88-1-1.21h0l-.17-.22a8.9,8.9,0,0,1-.86-1.45,4.78,4.78,0,0,1,.58-.43c1.44-.77.67-2.1-.55-3.31a3.27,3.27,0,0,1-.55-4.19,5,5,0,0,1,2.87-2.1c1.44-.44,1.55-2.43,1.88-3.65s2.65-4.52,3.31-6.07,2.32-5.3,2.21-6.18-2.32-2.43-4.53-4a9.2,9.2,0,0,0-5.41-1.77c-.48-1.27-1.29-3.06-1.72-4l35.06-.13S672.71,730.76,672.82,737.61Z"/><path class="cls-14" d="M854.43,840.17c2.27-.27,3.92.06,4-2.09s-1.6-2.6-2.92-2.54l-9.5.53a110.3,110.3,0,0,1-.66-11.68c.11-11.71-.44-19.66-4.86-22.31a9.61,9.61,0,0,0-2.65-1l.34,0-.85-.08a51.49,51.49,0,0,0-8.52-.81c-1.28-.1-2.37-.19-3-.21-2.54-.11-4.3.66-19.54-1.88a114.09,114.09,0,0,0-11.59-1.28h.16l.25-61.85s0-4.08,1.46-6.49v0a4.23,4.23,0,0,1,.25-.42,3,3,0,0,1,2.26-1.34c4.06.08,53.49-.08,53.49-.08s3.23.16,3.4-2.41-2.15-2.64-4.39-2.73-58.13.83-61.94.75-25.5-.33-31.79-.5-36.93-.25-39.58-.08a9.46,9.46,0,0,0-7.76,5.19c-5.53,2.37-8.64,6.31-8.64,6.65a1.9,1.9,0,0,0,1,1.49c.08,1.89,3.24,2.13,6,1.93,0,.24,0,.48,0,.72,0,4.69.1,29.52.19,51.61-.7,2.08-1.4,4.21-2,6.15s-1.34,3.58-2,5.17c-5,12.42-.33,17.8,2.82,20.37.42.34.86.68,1.31,1,0,2.3,0,3.61,0,3.61v.08a2.21,2.21,0,0,0-2.65,2.19c-.11,2.87,1.22,10.16,7.18,11.7,4.26,1.11,21.09,3.51,30.35,4.79.53,1.92,1,3.93,1.31,5.75.22,1.2.42,2.85.59,4.67l.9,13.22a32.86,32.86,0,0,1-2.57-2.37c-.7-1-3-3.92-5-4.2a13.6,13.6,0,0,0-1.95-.08,55,55,0,0,0-7.66.44c-1.33.16-7,1.74-8.45,1.82a34.08,34.08,0,0,0-6.12,1.29c-1.33.3-3.41.92-5,1.22-1.17.08-2.12.06-2.12.06a.47.47,0,0,0,0,.53c.15,1.9.71,8.37,1.62,9.57l.38.5c-.06,1.54.09,3.72.67,4.3.88.89,2.1,1.88,3,1.11.59-.52,1.48-1.18,2-1.57h0a2.9,2.9,0,0,1,.55.39c.75.66,1.83.5,2.74.5a13.3,13.3,0,0,1,3.23.33,2.49,2.49,0,0,1,.33.16l.21.12.13.08.09.06a17.19,17.19,0,0,0,2.94,1.92A15.21,15.21,0,0,0,729,885.3a4.79,4.79,0,0,1,1.8,1.79c.5,1.16.75,2.9,2.4,4.23a32.21,32.21,0,0,1,4.56,4.14c1,1.24,2.73,1.9,3.23,2.4s.33,1.24,1.16,2.15a5.36,5.36,0,0,1,1.74,3.23c.24,1.66.57,2.65,2.15,5a10,10,0,0,0,4.22,3.56c.83.5.75,1.91,1.08,4.22,1.74,7.62,6.79,7.79,9.44,8.12s11.67,2,13.33,2.23a3.54,3.54,0,0,1,1,.3l-.06,0a11.19,11.19,0,0,0-2.23,5c-.34,2.73-.75,5-1.08,6.46a13.65,13.65,0,0,0,.08,4.47.8.8,0,0,1-.41,1c-.66.41-1,.75-.5,1.74s1,2.24,1,2.24a22.06,22.06,0,0,0-.83,3.31c-.33,1.9-1.08,4.55-.67,6.21s.34,4.47,2.82,7.45,3.48,5.05,4.64,6.46a7.18,7.18,0,0,0,7.53,2.48c.75.75,5.22,3.4,10.68.42s9.53-9.77,9.19-15.4-.74-7.62-.41-7.46,1.41.09,1.08-2.56-.5-5.3-1.25-7-2-3.89-2.48-3.39c-.07-1.49-.15-2.31-.22-3.47a6.78,6.78,0,0,0,1.71-1.34c.91-.91,2.24-3.72,2.9-4.05s2-2.49,2.57-3.07,2.07-.74,4.72-1.32,5.21-2.32,6.79-3.23,1.65-1.33,3.8-1.66,5.39-3.56,9.28-6,4.3-7.37,4.3-8.61c0-.2,0-.44,0-.69a4.52,4.52,0,0,0,.1-1.09,16.94,16.94,0,0,0,.14-3.28c0-.5,0-1,.06-1.37.11-2.21.77-4.53.88-6.74.08-1.56.26-5,.37-6.95,6.56-.32,13.41-.56,20.39-.66a165.23,165.23,0,0,1-13.44-44.13C851,840.4,854,840.23,854.43,840.17ZM713.67,778c0-17-.09-33.55-.1-40.79a51.6,51.6,0,0,1,7.11,1.6,43.61,43.61,0,0,1,9.52,4.63c1.24.75,1.41.5,2,1.16a9.26,9.26,0,0,1,1.08,1.66l-1.48-.35a23.22,23.22,0,0,0-3.74-.89s-2.35,6.07-3.78,9.71a50.49,50.49,0,0,1-4.08,8.17c-.11.17-.21.35-.32.54a14.92,14.92,0,0,0-1.43,3c-.24.84-.5,1.82-.85,2.91l-.05.15c-.52,1.36-1.34,3.4-2.31,5.46-.17.3-.33.61-.51.92A21.44,21.44,0,0,0,713.67,778Zm6.3,56.16a6.75,6.75,0,0,1-5-3.53,3.24,3.24,0,0,1-.17-.32,10.88,10.88,0,0,1-.88-4.31c0-.23,0-.55,0-1a35.43,35.43,0,0,0,4.32,2.11c2.17.85,14.42,5.53,21.87,8.43.15.26.28.48.41.67C730.71,835.26,722,834.36,720,834.15Zm26.49-42.61-.55.28c-1.55.77-1.11,1.87-2,3.86s-2.65,3-4.19,4.08l-.58.41a23.3,23.3,0,0,0-3.82,2.9c-.35.29-.69.58-1,.89a8,8,0,0,0-.64.66h-.59a18.11,18.11,0,0,1,.84-5.72c.82-2,2.15-4.47,3-6.29s7.2-14.33,7.2-14.33.17.68.45,1.75a19.72,19.72,0,0,0,.78,3c.68,2.58,1.52,5.68,2.2,7.94C747.17,791.15,746.8,791.34,746.46,791.54ZM749.58,742c-.66.92-1.49,2.74-1.82,1.74a23,23,0,0,0-1.25-4.39c-.82-1.65-1.15-.82-.49-2.64s-.25-3.57-.83-4.81a1.67,1.67,0,0,1,.25-2,13.92,13.92,0,0,1,2.32,2,15.3,15.3,0,0,1,2.23,4.64C750.57,738.46,750.24,741.11,749.58,742Zm40.74-8.11c-.08,3.75-.25,60.89-.25,62.72-3.66-.11-7.24-.08-10.61,0-.18-.16-.34-.3-.49-.41-1.07-.83-4.8-2.48-5.71-4.06s-.5-2.9-1.32-5-3.65-9.85-4.39-11.51-1.49-5.13-1.91-6.29-1.57-5.46-2.9-8.94-2.15-6-2-6.38a12,12,0,0,1,.74-1.32l-1-1c.44-.6,4.11-5,4.53-4.75,1.32,1,2.43-.44,4.3-2.32a48.19,48.19,0,0,0,6.74-9.93c.64-1.69.08-1.58.83-2.49s.11-1.65-.56-2.4c-.42-.47-2-2.11-3.18-3.27l18.67.21A21.55,21.55,0,0,0,790.32,733.91Z"/><path class="cls-15" d="M483.7,576c-232.31,0-420.63,11.86-420.63,26.5,0,.81-.49,3.61.66,4.41,19.43,13.5,200.52,21.31,419.86,21.31,225.05,0,409.37-7.75,420.64-21.75.36-.45.11-3.52.11-4C904.34,587.89,716,576,483.7,576Z"/><ellipse class="cls-15" cx="483.7" cy="605.84" rx="420.64" ry="23.18"/><path class="cls-15" d="M961.86,590.16c3.2-5.19,6.29-8.72,4.85-8.72A53.18,53.18,0,0,1,954,580.11c-7-1.38-16.87-2.85-20.76-6.4,0,0,.11-12.26.44-15.79s0-7.95-1.76-10.93-7.18-8.17-10.38-10.6-4.09-3.86-4.53-4.74-.33-2.76-1.43-4.64a6.89,6.89,0,0,0-3.65-2.39,3.85,3.85,0,0,1-.38-.65c-.17-.44,0-1.76.38-1.82s.83.33,1.77,1.05c-.11-.38-.16-.61-1.21-1.21a3.67,3.67,0,0,1,2.76,1.49c-.22-1-.67-1.27-2.32-2,1.49-1.05,3.7-5.08,3.75-7.46.72-.11,2.1-1.05,4.14-3.25s4.31-8,3.15-14.25-5.25-5.79-5.52-5.52-1.11-.38-1.38-1.27-1.44-1.1-1.88-1.38-.88-1.76-2-3.14-4.75-.22-5.52.16c-9.5-6.34-24.12,4.7-26.06,7.57s-1.05,3.69-1.43,4.52a7.81,7.81,0,0,0-1,3.43,24.38,24.38,0,0,1-1.16,5.07,3.29,3.29,0,0,0,.06,2.76,4.83,4.83,0,0,1,.44,2.65c-.06.83-1.71,2.93-3.2,5.52s2,2.16,2.92,2,1.05.39,1.05,1.22.06,1.38.83,1.49a1.31,1.31,0,0,1,.72,1.87,1.47,1.47,0,0,0,.55,1.88c.55.27.44,1.27.44,2.87s1,2.48,2.76,2.7a47.21,47.21,0,0,1,6.24,1c1.54.5,2,3.37,2,3.37-5,1-7.61,5.52-9.93,8.72a30.25,30.25,0,0,0-5,11.82,38.63,38.63,0,0,0-.22,8.5c0,1.21-1.44,3.75-2.1,4.85-.79.74-.1,2.18.76,3.4v0c-1.32,3.31-1,7.39-.77,9.6.1.93.17,2,.2,3.12a24.07,24.07,0,0,1-2.85,6.43c-.39.55-1.49.22-6.79-.22s-11.32-2-15.34-4.91-6.57.55-7.51,2,3,5.46,4.91,6.84,9.66,6.68,16.07,8.28,10.15,2,11,2.21l.88.24a10.26,10.26,0,0,0,4.81,3.91l.24.11c-.15.67-.45,2.11-.74,3.6-13.61.91-32,2.2-34.73,2.41-4.3.33-1.21,3.64-.33,4h.16l-.49,4.1s16.48-.89,33.65-1.78a4.49,4.49,0,0,1-1,1.56c-1.21,1.1-3.09,2.64-4.08,3.64s-3.43,1.1-5.19,1.1-17.78-.44-23.08-.22-17.11.88-21,7.51c-2.24,3.84-3.14,8.48-3.53,12.66-4.65,1-7.58,2.19-.22,3.26-.07,1.75-.09,3.33-.12,4.61-.11,4.86,0,13.36-.22,17.12a47,47,0,0,1-1.43,9.6c-.67,2.21-1.33,4.42-1.33,4.42a20.91,20.91,0,0,0,4.56,3c.17,1.63.91,8.94.52,11.49-.44,2.87-3.53,9.27-5.41,11.26a70.06,70.06,0,0,0-5.3,6.18c-.19.26-.38.5-.57.73l0-.06a6.27,6.27,0,0,0-.53.57c-2.79,2.91-5.5,3.43-8.3,4a24,24,0,0,0-4.31,1.11c-4.53,5.41,23.41.33,25.06.33s3.64-1.11,5.3-2a5.42,5.42,0,0,1,1.49-.52c1.24,2.86,3.6,4.4,7,4.83,5.3.66,42.07,1,49.9,1s76,.22,76,.22c2-.11,3.42-.77,2.87-2.54s-2.21-1.76-5.52-1.65c-3.08.1-68.56.11-81.65.11l-.08-.06h0c-.8-.54-3.16-2.36-3.16-5,0-3.19.22-62.67.22-63.36,1,.12,1.85.22,2.54.32,9.05,1.21,32,3.09,45.27,1.1s21.2-.77,22.41-9.71c.89-6.54,1.15-12.74,2.59-20.77,0,.19,0,.36-.05.51,3.31-.33,11.81-.94,14-1.49s3.37-3.31.39-4.42c-1.3-.48-6.76-1.68-12.55-2.89.13-.48.24-1,.37-1.44C954.16,605.26,958.66,595.35,961.86,590.16ZM847,702.44c-.44,5.41-.78,6.85-2.21,9a22.92,22.92,0,0,1-3.87,4.23,4.87,4.87,0,0,0-.55-1.91c-1-2.54-1.87-3.2-2.65-4.74s-1-4.75-.88-7.18a69.29,69.29,0,0,1,1.43-8.14c.51,0,1-.08,1.55-.14a4.07,4.07,0,0,0,.21-.42l0,.06.1-.21-.06.15a1.92,1.92,0,0,1,1.3-.72c.88.07,2.39.18,4.24.21A23.66,23.66,0,0,1,847,702.44Zm13.74,23.15-7-.1c1-.6,2.25-1.34,3.62-2a4.66,4.66,0,0,1,2.64-.41l.16,0a1.67,1.67,0,0,1,.61,1.06Zm7.23.08c.09-.88.25-2.31.45-4a29,29,0,0,0,.19-5.86c.08.38.11.58.08.34a6.43,6.43,0,0,0-.79-3,4.6,4.6,0,0,0-.57-.73,13.77,13.77,0,0,0-2.56-3.76c-1.1-1.21-2.32-4.63-2.76-6.84s-1.72-7.67-1.87-11.32a8.69,8.69,0,0,0,1.32-.83c-1-4-1.54-4.85-2.1-7.17s-.66-5.19-1-6.63-1.77-5.07-1.88-6.84a50.78,50.78,0,0,0-.55-7c-.44-1.87-2.43-5.52-.88-6.84,0,0,0,0,0,0,5.69.55,11.5,1.13,16.1,1.63l-.33,62.52a11,11,0,0,0,.85,4,7.53,7.53,0,0,0,1.6,2.4Z"/><path class="cls-15" d="M190.14,680c-4.47-.17-7.78-3.15-9.94-4.64s-5.13-4-5.13-4a1.72,1.72,0,0,0,.66-2.32c-.66-1.66-2-7-3.81-9.11s-2-8-4-11.59-6.13-14.41-9.27-20.7S154,616.44,149.57,615a21.9,21.9,0,0,0-7.46-.82,9.57,9.57,0,0,0-2.55-1.59c-3.57-1.4-17.32-2.5-21.29-2.7l-14.21-.76.52,0a23.91,23.91,0,0,1,5.41.22,19.12,19.12,0,0,0-1.33-5,29.77,29.77,0,0,0-5.19-6.07c-1.54-1.32-3.09-3.31-4.3-3.64s-2-.33-2.87-1.33-2.21-2.43-2.76-3a16.14,16.14,0,0,0-3.76-3.86c-2.09-1.33-6.62-6.63-6.84-7.95s-.77-4.31-4.53-8.72-4.19-4.64-6.29-8-3.09-7-8.61-9.06a43.24,43.24,0,0,0-9.88-2.53A5.28,5.28,0,0,1,56,548.71c1.22-.23,4.31-.28,4.31-2.82,0,0-.34-2.4-.05-2.82a2.67,2.67,0,0,0,.46-2.07c-.25-.66-.41-1-.54-1.32.66.08,1-.54,1.16-.95s-.37-1.58-.21-2c.5-.41,1.74-.87,1.58-1.86s-.75-2.28-.58-3.19c.62-.54,2.27-1.16,2.4-3.73.29,0,.29-.25.29-1a6.53,6.53,0,0,0-.13-1.28l-3.18-.66s-.32,0-.17-.87c.18-1.05-.43-1.49-.81-2.38s-1-5.11-2.56-8.13c.35-.5,1.35-3.05.52-4.4-1.51-2.44-5-5.46-7.73-7.18s-5.25-4.91-13.58-2.64A31.23,31.23,0,0,1,32,500c-2,.11-10,2.65-13.74,9.05s-2.65,7.45-2.82,8.72a2.8,2.8,0,0,1-2.21,2.65c-1.6.55-3.75,2.76-.71,6.85s3.81,6.57,2.37,7.89-5.24,3.09-2.76,8,4.42,5.63,5.13,6.73.72,3.26,2.76,3.26,2.88-.65,3.23-.31L23,553l.51,1.12a2,2,0,0,0-.4.53,2.15,2.15,0,0,0-.16,1.44c0,.55-.61,1.32-.94,2.09s-2.71,3.54-3.65,5.64-1,4.14-1.54,4.85a13,13,0,0,0-1.69,5.18c-4.91,1.28-8.85,2-10.79,1.89-3.14-.17-2.27.17-1.65,1a141.11,141.11,0,0,1,10.26,15.57,100.92,100.92,0,0,1,8.67,22c-5.93,1.19-11.89,2.4-13.53,2.82-3.42.88-1.65,4.75,1.11,5.19s14.14.9,14.14.9v0c1.35,9.19,1.24,12.59,1.7,17,.5,4.76,2.49,15.53,15.9,16.85s48.36-1.82,56.14-3l.81-.12c0,1.09,1.18,45.57,1.73,55.82.52,9.85-3.83,11.15-7.2,11.72l-4.59.25c-16,.27-72.92-.16-74.77-.2-2.09,0-5.08-.18-5.08,2.19a2.57,2.57,0,0,0,2.21,2.65H134.93a9.81,9.81,0,0,0,7.55-3.62c8.5.2,17,.37,17.35.2.67-.33,2.65-.33,2.16-2.15s-2.32-2.32-5.3-3.48a28.2,28.2,0,0,1-3.75-1.9l-.45-.27h0c-2.07-1.23-4.13-2.6-5.58-3.47a3.78,3.78,0,0,1-1.51-1.71c0-.49,0-1.68,0-3.41.95-.29,3.14-1,4.66-1.34,2-.5,9.94-4.64,9.94-4.64s-.83-7.94-1.66-11.26c-.62-2.48-1.33-10.21-1.65-13.89,0,0,0-.16,0-.35-.09-1-.14-1.65-.14-1.65s2.49-.83,2,.66a20.55,20.55,0,0,1-1.33,3,38.21,38.21,0,0,0,.67,6.46c2,1.82,9.11,3.64,11.59,4.3s9.94,3.48,13.74,3.48,12.92-3.31,14.41-4,3.15-1.83,1.66-5S194.61,680.2,190.14,680ZM61.63,527a5.08,5.08,0,0,1,2.21.55s.66,2.87-1.66,3.2C62.18,530.76,60.75,527.12,61.63,527ZM58,513.16c-.05.15-.09.27-.11.36A6.62,6.62,0,0,0,55.67,511S58.87,510.45,58,513.16ZM22.55,618.53l-1.85.11,1.81-.39c.07.35.14.69.2,1Zm.29,1.55h0c0,.28.1.55.14.83V621C23,620.67,22.89,620.35,22.84,620.08ZM128,710.5c-1.49,0-1.82-.16-2.82,2.32-1.87,5-.49,8.44-.1,9.25-8,0-20-.09-24.3-.09a11.66,11.66,0,0,0,2.59-5.88c.55-3.25.28-7.08.28-11.89,0-7.92-.92-49.55-1-51,3.73-.48,7.48-.88,10.46-1a28.42,28.42,0,0,0,6.69.64c1.31,1.73,2.5,3.36,3.18,4.17a7.39,7.39,0,0,1,1.66,6c-.17,1.9-1.33,3.4-.5,5.5s3,2.87,2.32,4.86a13.62,13.62,0,0,0-.17,5.71c.17,1.41,1,7.86,1.16,10s-.83,7-.83,9.77a59.11,59.11,0,0,0,1.33,8.78C128,708.51,128.7,709.34,128,710.5Z"/><path class="cls-15" d="M271.64,639c-.24-4.06-1.82-9.52-6.37-12.17a41.32,41.32,0,0,0-4.87-2.27c0-.77-.08-1.56-.16-2.37a2.11,2.11,0,0,0,3.37-1c.17-1.16-.25-5.14-2.9-9.19s-7.45-4.39-11.17-4.89-25-3.81-27.49-4c-1.29-.09-3.28-.38-5.24-.49a10.84,10.84,0,0,1-.17-1.64c-.08-2.72-1.33-5.3-.67-8.83.46-2.44.5-6.09.77-9.24.94-4.72,2.41-10.94,2.41-10.94a23.19,23.19,0,0,0,4.88,4.39c3.48,2.49,8.59,6.38,12.59,7.95,3.64,1.43,9.52.91,11,.41s4.31-.24,6.29-.41a12.5,12.5,0,0,0,5.47-1.49c1.41-.91,4.8-1,6.54-2.32a36.51,36.51,0,0,0-2.48-19.62s-4.34,1.35-5.8,1.9a69.62,69.62,0,0,1-7.53,1.66c-2.68.55-4.39.78-6.63-.83a45.47,45.47,0,0,1-3.72-2.65,34,34,0,0,1-4.31-4.31,36.87,36.87,0,0,0-4.31-5,16,16,0,0,1-2.81-3.4,23.29,23.29,0,0,1-2-4.06c-.44-1-1.32-2.07-1.9-3.14,1.65-6.3.33-11.43-1.66-14.41a9.59,9.59,0,0,0-5.62-4,2.07,2.07,0,0,0,.07-1.57,3,3,0,0,0,.5-2.4c-.08-.58-.5-1.24-.25-1.57a9.41,9.41,0,0,1,1.74-1.41,2.27,2.27,0,0,0,.5-3.56c-1.33-1.74-2.9-3.31-3.15-4.06a9.89,9.89,0,0,0,.25-2.65,13.7,13.7,0,0,1-.25-3.23,24.31,24.31,0,0,0-2.07-9.6c-2.23-4.89-6.87-10-13-11.57s-11.92-.52-13.08.47c-1-.66-6.05-1.74-9.11-1.16s-10.68,3.4-11.76,12.18a44.82,44.82,0,0,0-.08,10.1c.19,2.73.25,5.63.41,7.28a37.34,37.34,0,0,0,1.08,6.71.23.23,0,0,0,.07.1c-2.12.82-5.34,3.76-8.43,6-3.4,2.4-7.46,4-9.44,5.63s-3.48,3.31-4.81,4.22a12.31,12.31,0,0,0-3.72,3.72c-.58,1.25-.75,6.22-.42,9.44s.67,6.38.75,7.95a9.08,9.08,0,0,0,.33,1.87,1.08,1.08,0,0,1-.16-.29s.17.61.45,1.34.4,1.4.54,2.13a14.63,14.63,0,0,1-.12,4.06,225.42,225.42,0,0,1-34.58-.08,175.76,175.76,0,0,1,13.23,45l-8.48.35s-5.19-.45-4.3,4c.55,1.22,1.87,1.88,3.64,2.1s9.34.92,10.09,1c0,.19,0,.39.07.58.49,5.88,1.07,17.89,1.32,21s1.66,9.69,10.27,10.27l.19,0a92.2,92.2,0,0,0,9.17,4.54c4.14,1.57,6.45,1.32,7.78-.25a20,20,0,0,0,1.5-2.11c6.33.78,13.05,1.52,18.79,1.78l-.45,61.3s.56,9.71-4.74,9.82-52.33.44-52.33.44-4.25-.85-4.42,2.46c-.11,2.15,1.74,2.49,3,2.62,0,0,133.81.55,140-.55a8,8,0,0,0,4.77-2.49l.51-.23h2.45c3.73,0,9.38-.14,9.38-.14s2.43-3.75-4-5.08c-1.46-.3-4.16-1-6.06-1.57,0-.88,0-2.66,0-5.13a1.93,1.93,0,0,0,.38-.09h0c.7-.22.87-.66,1-1.31,0-.11.05-.38.1-.76l.06-.32c.08-.42.17-1.26.3-2.35.38-2.9.95-7.1,1.55-10.7.33-1.71.67-3.43,1-5.12q.15-.76.27-1.56c.35-2.06.64-4.07.79-5.94.33-4.14.5-7.78,1.24-14.57s1.66-12.34,1.66-12.34l-.08.27c.4-2.45.79-4.78,1.07-6.23C270.57,649.23,271.89,643,271.64,639Zm-71.12,77.92a16.53,16.53,0,0,0-1.24,4.39,12.16,12.16,0,0,0-.05,1.74l-24.55.3a5.24,5.24,0,0,0,1.52-2.95,18,18,0,0,0,.91-5.22c.22-5.73.22-63.88.22-64.09h.5c1.92,0,3.83-.11,5.72-.21a109.22,109.22,0,0,1,3.88,10.89c.83,3.56,1.25,9.61,1.83,11.34s2.4,15.9,3.31,18.88,1.82,6.71,1.65,8.61a19.92,19.92,0,0,0,1,7.29c.74,1.82,3.06,3,3.64,4.56a8.68,8.68,0,0,0,1.09,2.26c-.07.13-.09.21,0,.22h.34C200.6,714.91,200.85,715.89,200.52,716.88Zm48.69-101.44s5.24.76,6.11,7.15c-6-2.15-13.37-4.45-19.8-6.15s-12.43-3-16.56-3.82c-.49-.28-.85-.48-1-.57a1.47,1.47,0,0,1-.3-.42C229.07,612.94,249.21,615.44,249.21,615.44Zm-9.94,48.69a110,110,0,0,1-2,16c-.88,3.64-5.08,17-5.52,21.42s-.69,4.88-.69,5.3c0,.19.29.4.84.62-.59,4.18-2.85,2.66-3.9,9a11.32,11.32,0,0,0,.49,6.2l-4,.05a14.25,14.25,0,0,0-1.74-3.35c-1.08-1.32-3.81-4.64-3.64-6.54s1.24-1.66,1.74-1.74a2.44,2.44,0,0,0,1.82-2.24,39.21,39.21,0,0,0-.33-5.29c-.33-1.5-3.4-6.46-3.48-8.86a27.57,27.57,0,0,0-1.24-7.87c-.91-2.73-3-10.52-2.9-12.5a36.12,36.12,0,0,0-.08-6.63c-.33-2.32-.09-10.76-.25-12.5-.15-1.58-.3-5.15-.58-7.34l16.48-1.7c2.38.33,5.52.81,7.28,1.2,2,.44,3.31.55,3.42,3.09S239.27,661.26,239.27,664.13Zm13.78,48.39c1,.12,2.12.19,3.21.21,0,1.32,0,2.37,0,3.08A7.49,7.49,0,0,1,253.05,712.52Z"/><path class="cls-15" d="M546.87,547.34c-1.44-3.53-1.66-3.75-2-5.52s-1-2.65-.88-5-.11-2.65-.44-6.07-.78-6.63-2.43-9.5-3.43-3.09-6.41-4.63-13.25-5.85-14.35-6.3a14.43,14.43,0,0,1-4-2.53c-.67-.78-3.65-1.88-5.41-2.65s-5.63-5.75-6.41-7.18l-.18-.08c.5-1.9,2.47-7.43,3.69-10.66,1.41-3.72,3.06-14.74-3.56-21.11s-13.83-6.21-18.88-6.05c-14.74.67-16.56,12.76-16.81,14.74-1.16.83-.75,2.57-.66,3.65a5.16,5.16,0,0,1-.33,3c-.5.82-.25,1.4-.75,2.32s-3.81,3.56-5.38,6.54.5,4,1.32,3.89a1.53,1.53,0,0,1,1.66.66c.25.5-.66,2-1.16,3.48a1.81,1.81,0,0,0,1.16,2.4c-1.57.17-1.33,1.32-.25,2.48a34.92,34.92,0,0,0,2.54,4.59c-5.92,2.18-11.84,4.39-13.52,5.07-2.1-.44-4.42,1.55-5.19,3.1s-2.54,6.84-3.43,9.71-1.32,4.31-2.09,7.18a47.2,47.2,0,0,0-1.11,10.49c0,3-.77,2.87-1.87,5.63a21.11,21.11,0,0,1-4.2,6.62c-2,2.32-4,4.42-4.75,6.73a11.76,11.76,0,0,1-2.65,4.86c-1.21,1.33-2.2,2.65-2.65,2.54-.29-.07-.6.06-1.36.38l-.95-.74h-.1a22.11,22.11,0,0,0-5.54-4.72c-3.56-2.07-5.63-2.76-7.28-4.36a12.36,12.36,0,0,0-4.64-3.2c-1.49-.44-1.87.11-2.15.55s.05,2.1,1.38,3.31a24.63,24.63,0,0,0,3.7,2.93,6.47,6.47,0,0,1,2.32,2.21c.49.88,1.49,2.15-.78,2.76-1.76.55-3.05.54-3.27.09s.18-2.19-1.75-3.07-1.05,2.65-1.1,3.59-.11,2.87,1.15,3.2,1.55.71,1.11,1.49a3.34,3.34,0,0,0-.55,2.65,1.86,1.86,0,0,0,2.32,1.32,9.16,9.16,0,0,1,3.86.39c.5.3,1.61,1,2,1.17,0,.15,0,.28,0,.37a2.17,2.17,0,0,0,.35.81c-.17.81-.2,1.42,0,1.57.44.44,4.42,8.06,5.41,9.71s3.87,2.17,5.19,2c2.43-.33,6.29-.77,9.39-.88,2.34-.09,4.81-.49,6.4-.58-.11,2.54-.21,5.06-.3,7.52l-1.61,0c-.09-2.15-5.09-1.26-6.61-1.37s-3.42,1.38-4.3,2.16a35.38,35.38,0,0,0-4.31,4.14c-1.21,1.54-1.82,7.61-1.82,10.93s2.28,3.49,2.28,3.49H424v2.83a11.05,11.05,0,0,0-1.52,1.28c-1.88,2-3,6.86-2.31,8.85a97,97,0,0,0,3.75,10.15l-.32,82.65c0,3.64,3.75,3.86,3.75,3.86s4.53,0,5.74-.11,110.51.22,114.16-.11,4-1.77,3.86-3.87-3.42-2-3.42-2-13,.22-14.57.11-1.55-4.25-1.55-4.25l.63-54.3.1,0,.14,0,.12,0h0a8.32,8.32,0,0,0,4,0c2.32-.5,5.88-3.39,7.45-4.8.85-.76,1.12-1.11,1.07-1.5.78-1.41.55-2.86.31-5.15-.33-3.21-.88-10.71-1.43-18.11a134.3,134.3,0,0,0-2.4-15.73c0-2.12.11-4.06.19-5.52.05-1,.13-2.41.22-4.17a67.69,67.69,0,0,0,7.73-1.68,3.65,3.65,0,0,0,1.21-5.41c-1.33-1.62-6.92-1.76-8.44-1.77.43-7.51,1-16.38,1.61-22.57h.19a4.52,4.52,0,0,0,3.92-1,16.46,16.46,0,0,0,4.71-5.43c1.43-2.65,1.32-6.18-.11-11S548.3,550.87,546.87,547.34ZM430.38,618.26c.14-3.23.4-7.53,1.08-9.77a17.76,17.76,0,0,1,6.22-3.23,22,22,0,0,1,2.4-.25c-.09,2.58-.17,5-.24,7.36a39.15,39.15,0,0,0-7,4.19c-.79.63-1.62,1.22-2.46,1.78C430.36,618.31,430.38,618.29,430.38,618.26ZM459,707.09c-1.11,2.32-2.87,5.63-4.09,7.62A22.11,22.11,0,0,1,450,720c-1.27,1-4.9,2.56-7.05,3.93l-6.56.06c-1.76,0-4.65,0-6.05,0a2.08,2.08,0,0,1-2.07-1.09.83.83,0,0,1-.07-.13.2.2,0,0,1,0-.08l-.08-.17,0-.06-.06-.2,0,0,0-.16a4,4,0,0,1-.09-.48c0-.18,0-1.15,0-2.31.06-7.65.32-37.32.53-63,1.73,4.21,4,8.63,4.75,10.91,1,2.87,1.55,7.5,2.76,9.82s4.2,11.26,5.08,14.47,2.21,6.84,3.75,10.82c1.39,3.57,1.8,5.26,2.43,5.89,0,.08.09.14.22.18.78.44,2.54.33,5-.55.64-.24,1.7-.69,3-1.31l.09,0a15.59,15.59,0,0,0,3.07-1.56l.46-.24A3.65,3.65,0,0,1,459,707.09Zm22.63,14.58a5.17,5.17,0,0,0-.64,2.12l-9.49,0a19,19,0,0,1,1.52-1.71c1.21-1.11,3.75-.55,5.63-1.55a14.83,14.83,0,0,0,2.75-1.8v0l-.06.05a6.65,6.65,0,0,1,.28.73A3.45,3.45,0,0,1,481.62,721.67Zm2.87-66.58a29.47,29.47,0,0,0-.11,7c.11,1.88-.9,6.94-.46,10.47s-.33,6.52-.22,10.16-.88,9.49-1.1,11.92c-.14,1.48-.19,4.27-.21,6.22l-.32-.62c-.55-1.1-2.22-3.82-3.76-4.59-1.36-.68-3-.51-4.19-1.73a2.68,2.68,0,0,0,.32-.37s-1.76-3-3-5-3.75-4.42-3.75-6.19-.78-5.52-2-7.17l-.39-.52-.16-.26a30.56,30.56,0,0,1-2.46-4.25c0-.13-.06-.25-.08-.38-.33-2.32-.44-4.42-3-6.19a8.78,8.78,0,0,1-1.24-1,4,4,0,0,1-.85-2.82c0-.34.06-.72.1-1.16a9.44,9.44,0,0,0-.15-2.23,9.75,9.75,0,0,0-.95-3.74c-.09-.18-.19-.38-.28-.58a30.44,30.44,0,0,0-1.93-4.16c-.15-.27-.29-.52-.41-.76-.27-.63-.51-1.23-.68-1.77a302,302,0,0,0,30.61,2.84c.14.87.35,2.23.45,3A14.79,14.79,0,0,1,484.49,655.09Zm22.62,68.65a26.59,26.59,0,0,0-2.53-3.18c-1.87-2.1-2.87-5.3-3.64-7.62,0-.05,0-.1-.05-.15l.49-.07s.66-1.1.33-4.08,1.11-5.08,1.55-7.51,1.1-9.38,1.43-12.47c.12-1.09.32-2.24.56-3.42l0,.08s1.24-5.14,2-9.28,2-12.25,2.24-15,.66-7.45,1-9.35.83-4.06.83-4.06h-.2v0c4.21-.4,8.38-1,12.44-1.74l.24,0c-.06,2.22-.91,6.21-1.07,8.84a10.07,10.07,0,0,0,.37,3.2,8.89,8.89,0,0,0,1.9,4,3.69,3.69,0,0,0,1.12,1h0l0,0a8.22,8.22,0,0,0,1.94.85c-.34,21.15-.85,53.19-.91,55.18v.53a6.69,6.69,0,0,0,.82,3.75,2.07,2.07,0,0,0,.51.58Z"/><path class="cls-15" d="M397.67,574.27a3.07,3.07,0,0,0-2.63-1.65,5.13,5.13,0,0,1-1.68-.4c-.95-.28-1-1.12-2.51-.93-.88.11-1.16,1.26-1.6,1.7-.77.79-1.32,1.08-1.93.31s-2.74.25-2.71,1.63c0,.79,0,1.65,0,1.65-.05,1-1.27.55-2.81.77a4.22,4.22,0,0,0-1.59.57c-.83.32-2,.67-2.58.26a6.37,6.37,0,0,1-.91-.8c-.18-.31-.35-.65-.55-1-.66-1.21-.55-2-1-4.86s-1.32-5.52-2-9.27-1.66-7.51-1.66-9.38-.44-3.87-.11-5.75.88-3.2.77-4.74a17.33,17.33,0,0,1,.22-4.09,16.85,16.85,0,0,0-1-9,11.38,11.38,0,0,0-6.65-6.94,3.21,3.21,0,0,0,2.39-1.07,4.16,4.16,0,0,0,.41-2.81c-.08-.79-.16-2.48,1-2.86s1-1.2.74-2c.5-.42.75-.87.66-1.2s-.33-2.12.87-2.16,3.23.25,3.65-.91-.25-2.23-.75-3.35-2.73-4.68-3.1-5.59a5.18,5.18,0,0,1-.34-2.65c.13-.66.46-1.33.25-1.91a22,22,0,0,1-.29-4.76,12.5,12.5,0,0,0-1-5.21c-.62-1.2-.5-1.16-.5-1.7s.29-2.19-2-4.35-6.41-5.09-14.57-6.13-16.19,1-19.54,6.67-2.9,7.7-3.31,8.07c0,0-1.22-.07-3.2-.12s-4.86,2.1-6.19,4.08c-2.08,3.13-.33,3.54-3.42,4.86-1.28.55-1.43,1.05-1.54,1.6,1.32-1.27,1.93-1.49,2.42-1.27s-.81.83-1.36,1.16a4.91,4.91,0,0,0-2.33,3.26c-.3,1-1.66,1.27-3,2.21s-6.85,2.32-5.91,9.11a3.26,3.26,0,0,1-1,3.14c-.7.58-2.54,2.43-3,6.9-.3,2.71-.13,4.81-.31,6.47a9.52,9.52,0,0,0-3.35,4.29c-1.23.46-2.47.45-3.09-.18a4.5,4.5,0,0,0,2.62,1.49,5.2,5.2,0,0,0-.1.59,12.67,12.67,0,0,0-.24,3.19,36.26,36.26,0,0,1-.55,6.51c-.24,2-.59,4.75-.77,6.21-14.61.49-31.11.5-48-.53,0,0,5.47,22.86,7.12,40.91q.35,3.78.62,7.12c-7,.09-9.48.51-10.22,2.15a3.2,3.2,0,0,0,1.49,4.31c1.65,1,8.67,2.34,9.38,2.47.54,8.54.67,14.15.72,17.57.08,5.21-.5,15.4,5,16.39,2.93.53,10.72,1.58,20.79,2.41,0,4.59.55,70.77,0,74.85-.34,2.48-1,3.3-1.42,3.55h0a.7.7,0,0,1-.55.08L247.88,723c-1.66,0-3.15.09-3.23,2.57a2.45,2.45,0,0,0,2.9,2.65l131.16.41c1.07,0,4.14-.16,5.21-1,3.56-2.65,3.4-9.6,3.4-9.6s-.35-71.81-.56-97.37c1.79-.17,3.68-.54,3.95-1.42.42-1.32-.16-6.29-1-10a6.39,6.39,0,0,0-3.48-4.72s-9.85-3.8-12.42-4.63c-1.49-.48-2.65-1.1-4.55-1.72,2.32.57,5.05.85,7,.17,3.2-1.1,13.91-4.41,16.45-5.74a20.37,20.37,0,0,0,6-4.86,4.74,4.74,0,0,0,1.22-3.64c-.1-.54-.21-1.05-.34-1.55a1.25,1.25,0,0,0,0-.21c.21-.4.53-1.05.87-1.88a4.78,4.78,0,0,0-.86-4.42C399.1,575.31,398.33,575.56,397.67,574.27Zm-39.61,13.24c2.1,2.87,5.52,8.28,7.62,9.39a13.53,13.53,0,0,0,2,.8,36.2,36.2,0,0,0-4.09-.8c-3.68-.55-5.5.69-6.37,1.78v-.24c0-.18,0-.38,0-.58,0-1.19,0-2.57-.07-3.28a2.92,2.92,0,0,0-.06-.44A20.16,20.16,0,0,1,358.06,587.51ZM322.67,723.29a6.45,6.45,0,0,1,.23-2.44c.41-.58,1.74-.5,3.39,0a27.26,27.26,0,0,1,5.19,2.52Zm6.17-36.22c-1.7,1.34-3,2.29-3.21,4.06a6.1,6.1,0,0,0,.91,3.64s.06.07.08.11c-1.42,4.62-2.5,7.16-3.67,8.44l-2.2,2.43-1,.11s-6.29,5-2.9,12.42a14.27,14.27,0,0,1,.58,4.23,5.73,5.73,0,0,1,0,.72c-15.57-.15-30.41-.32-31.79-.39a3.3,3.3,0,0,0,.4-.92,9.71,9.71,0,0,0,.59-2.92c0-.46,0-.65,0-.66.1-1.35.1-2.46.1-2.46L286.3,645c8,.57,17.19,1,26.33.82,8.75-.12,17-.39,24.08-.76,1.89.81,4.66,2,6.14,2.58,2.27.9,2.46,1.73,2.29,2.21s-.71.85-1.13,1.35c-1.6,1.94-7.37,6.3-12.44,25.62C330.53,680.76,329.64,684.15,328.84,687.07Zm53.76,29.06c0,7.54-2.73,7.12-2.73,7.12s-16.65.25-18.39.25h-1.84a5.75,5.75,0,0,0-1.8-1.42c-2.81-1.57-8.78-6.54-10.85-8.28s-5.21-5.21-5.87-6.95a7.4,7.4,0,0,1-.43-5,16.81,16.81,0,0,0,8,2c4.81,0,12.84-3.73,10.27-7-1.16-2-3.81-2.65-6.79-3.64a13.22,13.22,0,0,1-5.84-3.92c4-6.77,7.45-10.77,14.62-20.26,7-9.25,14.82-19.06,16.1-26.63a.92.92,0,0,1,.07.13,13.35,13.35,0,0,0,.66-1.28l4.11,0C382.2,669.3,382.6,711.17,382.6,716.13Zm-5-104.58c1.08.91,1.41,4.47,1.66,6.87.14,1.42,1.21,2,2.45,2.27,0,3.92.09,10,.16,17.24l-3,.2h0c0-.14,0-.28,0-.42.17-2.32-2.23-6.87-4.8-8.78l-.1-.07a15.57,15.57,0,0,0-3.25-2c-2.43-1.37-4.93-2.57-4.93-2.57s-.55-1.44-1.88-4.86-4.41-10.16-5.52-12.15a9.25,9.25,0,0,1-.84-2.86l6.68,2C368.36,607.77,376.74,610.8,377.63,611.55Z"/><path class="cls-15" d="M294.07,533.89c-.06-.09-.14-.17-.19-.25A1.5,1.5,0,0,0,294.07,533.89Z"/><path class="cls-15" d="M570.2,576.47a7.35,7.35,0,0,1-.57-1.09A5.23,5.23,0,0,0,570.2,576.47Z"/><path class="cls-15" d="M609.37,569.65a3.12,3.12,0,0,0,.52-.69C610.17,568.46,609.93,568.88,609.37,569.65Z"/><path class="cls-15" d="M569.63,575.38l0-.12Z"/><path class="cls-15" d="M712.86,607c-2.16-.27-7.08-.37-7.08-.37h-.26c1.07-8.58,2.54-18,3.73-23.45,1.88-8.62,4.53-21,4.75-24.4a90,90,0,0,1-10.79.53c-.11-.56-.23-1.11-.36-1.64-1-4.08-3.86-16.23-5.63-21.64s-2.87-7.61-5.52-10.26-6.73-4.75-9.16-6-4.86-.88-8.39-1.65-7.29-2.32-8.17-2.43.25-2.13-1.49-3.81l-.24-.2c2.32-2.72,4.24-7.9,5.76-15.92,1.6-8.44,1.87-12-4.36-20.92s-14.85-6.84-15.9-6.07c-11.48-4.31-21.14,9.22-23.57,13.69a10.08,10.08,0,0,0-.22,8.83c0,.33-.17.22-.58,1.88-.19.74-.92,1.57-.25,2.76a3.39,3.39,0,0,1,.27,2.26,2.63,2.63,0,0,0-.16,2c.27.72.55.44-.44,2.87s-.11,5.63.66,7.51a62.77,62.77,0,0,1,1.87,6.51,28.92,28.92,0,0,0-3.31,1.33c-3,1.43-9,4-12.47,5.74s-6.41,3.86-7.07,4.75-.88,2.76-2.21,4a71.92,71.92,0,0,0-7.95,8.39c-3.64,4.53-5.85,7.95-8.28,11.26s-5.18,8.28-7.06,9.5-6,2.65-7,3.42-1.43,3.76-1.87,5.74-1.11,2.76-.55,4a10.35,10.35,0,0,0,.77,1.45l-.17-.24a20.86,20.86,0,0,0,1.6,2.21,6.32,6.32,0,0,0,2.76,1.62,11.16,11.16,0,0,0,2.21.61,33.87,33.87,0,0,0,8.39.75c1.08-.07,2.43-.25,3.78-.46a25.45,25.45,0,0,0,5.16-1l0,0a5.2,5.2,0,0,0,.75-.21c.88-.33,2.54-3.42,3.31-4.41a1.29,1.29,0,0,1,.27-.25,33.45,33.45,0,0,1,3.77-.86c.59-.08,1.22-.18,1.92-.33,2.07-.43,4.19-3.07,5.22-4.5a7.1,7.1,0,0,1-.56.51c1.14-1.54,2.15-3.17,2.63-4s.84.85.9,3.12c-2.1,12.92-4,29.79-4.1,34.53a1.85,1.85,0,0,0,0,.24,22.87,22.87,0,0,0-2.88.42c.33-.38.4-.86-.21-1.65-1.43-1.88-6.95-1.33-9.49-.77s-12.26,2.76-16.45,4.63-4.53,8.94-4.64,11.26-.11,3.87.44,4.09a5.79,5.79,0,0,0,1.25.09c-.6,20.68-2.13,97.06-2.13,97.06.33,11,6.3,9.5,9.72,9.61,2,.06,122.54.44,125.42.55s4.19-.66,4-2.87-3.75-2.21-3.75-2.21-27.71,0-30.59-.22c-1.65-.55-1.43-8.17-1.43-8.17l.41-66.9c2.27-.09,3.79-.18,4.34-.22,4.19-.34,16.34-.23,19.21-4.64s2.09-14.91,2.76-24.51c.17-2.45.46-5.46.83-8.73l2.75.06c2,0,4.86.39,6-.16A2,2,0,0,0,712.86,607Zm-132.36,15h.14c2.09-.22,1.76-.44,1.87-2.43.07-1.3.1-3.13.2-4.51a6.42,6.42,0,0,1,.58-.37c.32-.15.62-.28.88-.42,1.21-.66,14.6-4,18.93-4.86,1.17-.23,2.34-.41,3.48-.55-1.65,4.32-2,7.29-1.62,9.33-2.46,2.25-6.83,4.3-9.09,6.35s-9.54,8.3-11.59,10.15c-2.32,2.1-3.31,3.1-3.86,5.08a7.62,7.62,0,0,0-.2.92C580.34,632.14,580.44,625.31,580.5,622.07Zm24.09,86.77c-.77.78-5.3,4-7.84,5.86s-5.29,3.86-4.08,6.4a8.89,8.89,0,0,0,2.21,2.7l-14,0a1,1,0,0,1-.26,0,1.53,1.53,0,0,1-.71-.44,4.75,4.75,0,0,1-.76-2.42,2.88,2.88,0,0,1,0-.33l0,0c0-.64,0-1.12,0-1.12l1-72.94a27.25,27.25,0,0,0,.62,3.5,49.78,49.78,0,0,0,7.39,15.46c3,3.86,8.5,8.06,10.49,13.47a155.92,155.92,0,0,0,6.65,15.23c-.59.45-.91.66-.91.66s-.41.85.69,3.66a44.26,44.26,0,0,0,3,6.28C608,705.53,605.37,708.07,604.59,708.84Zm17.33,8.28a16.05,16.05,0,0,1-3.86,5.41,10.49,10.49,0,0,0-1.27,1.34h-1.61a10.76,10.76,0,0,0,.67-1.56c.67-2,.22-1.87,1.66-4.19.64-1,1.59-2.36,2.49-3.63.34.28.73.19,1.37-.46l1.66-1.65A12.66,12.66,0,0,1,621.92,717.12Zm15.25-67.8-.17.54c-1.51,4.35-8.37,11.17-9,13.61a16.78,16.78,0,0,1-2.94,4.58q-.28-.52-.6-1c-1.65-2.76-5-9.6-7.28-11.37s-3.09-2.65-2.21-4.19c.65-1.15,4.38-2,6.46-3,5.18.4,10.51.67,15.75.84ZM638.64,724c.43-.9,1.25-2.68,1.72-4a9.34,9.34,0,0,0,5.41-1.77c2.21-1.55,4.42-3.09,4.53-4s-1.55-4.63-2.21-6.18-3-4.86-3.31-6.07-.44-3.2-1.88-3.64a5.16,5.16,0,0,1-2.87-2.1,3.28,3.28,0,0,1,.55-4.2c1.22-1.21,2-2.54.56-3.31a4.05,4.05,0,0,1-.59-.43,8.9,8.9,0,0,1,.86-1.45l.17-.22h0c.26-.34.58-.73,1-1.21,2.43-2.76,3.2-3.31,5.41-6.07,1.89-2.37,3.38-3.28,6-6.26,1-1.05,2.08-2.21,3-3.35.62-.75,1.14-1.37,1.6-1.89a20.58,20.58,0,0,0,3.26-3.74c.14-.21.28-.43.44-.66.61-.87,1.75-2.34,3-4.05.17-.21.35-.41.52-.59a53.59,53.59,0,0,0,5.94-9.59l1.51,0c0,2.91-.39,58.73-.5,65.4-.11,6.84.88,9.49.88,9.49Z"/><path class="cls-15" d="M839.31,559.8c-.11-2.21-.77-4.53-.88-6.73,0-.4,0-.87-.06-1.37a17,17,0,0,0-.14-3.29,4.38,4.38,0,0,0-.1-1.08c0-.26,0-.5,0-.69,0-1.25-.41-6.22-4.3-8.62s-7.12-5.63-9.28-6-2.23-.74-3.8-1.65-4.14-2.65-6.79-3.23-4.14-.75-4.72-1.33-1.91-2.73-2.57-3.06-2-3.15-2.9-4.06A6.55,6.55,0,0,0,802,517.4c.07-1.17.15-2,.22-3.47.5.5,1.74-1.74,2.49-3.4s.91-4.3,1.24-6.95-.75-2.73-1.08-2.57.08-1.82.41-7.45-3.72-12.42-9.19-15.4-9.93-.33-10.68.41a7.18,7.18,0,0,0-7.53,2.49c-1.16,1.4-2.16,3.47-4.64,6.45s-2.4,5.8-2.81,7.46.33,4.3.66,6.21a22.48,22.48,0,0,0,.83,3.31s-.5,1.24-1,2.23-.16,1.33.5,1.74a.81.81,0,0,1,.41,1,13.64,13.64,0,0,0-.08,4.47c.33,1.49.75,3.72,1.08,6.46a11.26,11.26,0,0,0,2.23,5.05l.06,0a3.59,3.59,0,0,1-1,.29c-1.66.25-10.68,1.9-13.33,2.23s-7.7.5-9.44,8.12c-.33,2.32-.25,3.73-1.08,4.22A10,10,0,0,0,746,543.9c-1.57,2.4-1.91,3.4-2.15,5.05a5.36,5.36,0,0,1-1.74,3.23c-.83.91-.67,1.66-1.16,2.16s-2.24,1.15-3.23,2.4a33.46,33.46,0,0,1-4.56,4.14c-1.65,1.32-1.9,3.06-2.4,4.22a4.88,4.88,0,0,1-1.8,1.8A14.88,14.88,0,0,0,726,568a17.19,17.19,0,0,0-2.94,1.92L723,570l-.12.08-.22.13-.33.16a13.81,13.81,0,0,1-3.23.33c-.91,0-2-.17-2.73.49a2.83,2.83,0,0,1-.56.39h0c-.52-.38-1.41-1-2-1.56-.88-.78-2.1.22-3,1.1-.58.59-.73,2.77-.67,4.3-.12.17-.25.33-.38.5-.91,1.2-1.47,7.67-1.62,9.57a.49.49,0,0,0,0,.54s.95,0,2.12,0c1.6.31,3.68.92,5,1.22a32.4,32.4,0,0,0,6.12,1.29c1.49.09,7.12,1.66,8.45,1.82a53.48,53.48,0,0,0,7.66.44,13.6,13.6,0,0,0,1.95-.08c2-.27,4.26-3.21,5-4.2a32.86,32.86,0,0,1,2.57-2.37l-.9,13.23c-.17,1.81-.37,3.47-.59,4.66-.34,1.82-.78,3.83-1.31,5.76-9.26,1.28-26.09,3.68-30.35,4.78-6,1.55-7.29,8.84-7.18,11.71.08,2,1.71,2.23,2.65,2.18v.08s0,1.32,0,3.62c-.45.33-.89.67-1.31,1-3.15,2.56-7.78,8-2.82,20.37.64,1.58,1.3,3.34,2,5.16s1.32,4.08,2,6.16c-.09,22.08-.19,46.91-.19,51.61,0,.24,0,.48,0,.71-2.81-.2-6,0-6,1.93a1.91,1.91,0,0,0-1,1.5c0,.33,3.11,4.27,8.64,6.65a9.48,9.48,0,0,0,7.76,5.19c2.65.16,33.29.08,39.58-.09s28-.41,31.8-.49,59.7.82,61.93.74,4.56-.16,4.39-2.73-3.4-2.4-3.4-2.4-49.43-.17-53.49-.08a3,3,0,0,1-2.26-1.34,4.41,4.41,0,0,1-.25-.43v.05c-1.46-2.4-1.46-6.48-1.46-6.48l-.25-61.86h-.16a114.08,114.08,0,0,0,11.59-1.27c15.24-2.54,17-1.77,19.54-1.88.63,0,1.72-.11,3-.22a52.67,52.67,0,0,0,8.52-.8l.85-.09-.34,0a9.59,9.59,0,0,0,2.65-1c4.42-2.65,5-10.6,4.86-22.3a110.49,110.49,0,0,1,.66-11.69l9.5.54c1.32.05,3-.39,2.92-2.54s-1.76-1.82-4-2.1c-.47-.06-3.4-.23-7.81-.47a165.1,165.1,0,0,1,13.44-44.13c-7-.1-13.83-.34-20.39-.67C839.57,564.84,839.39,561.36,839.31,559.8ZM713.89,626.21a10.93,10.93,0,0,1,.88-4.32,3.24,3.24,0,0,1,.17-.32,6.74,6.74,0,0,1,5-3.52c2-.21,10.74-1.12,20.51-2.11-.13.19-.26.42-.41.67-7.45,2.9-19.7,7.58-21.87,8.44a33.88,33.88,0,0,0-4.32,2.1C713.88,626.75,713.89,626.43,713.89,626.21Zm18.3,81.39c-.58.67-.74.42-2,1.16a43.53,43.53,0,0,1-9.52,4.64,54.71,54.71,0,0,1-7.11,1.6c0-7.24,0-23.85.1-40.8a22.61,22.61,0,0,0,1.05,2.1l.51.93c1,2,1.79,4.09,2.31,5.45,0,.05,0,.11.05.16.35,1.08.61,2.06.86,2.9a13.7,13.7,0,0,0,1.43,3,5.47,5.47,0,0,0,.31.54,50.09,50.09,0,0,1,4.08,8.17c1.43,3.65,3.78,9.72,3.78,9.72a23.22,23.22,0,0,0,3.74-.89l1.48-.35A9.35,9.35,0,0,1,732.19,707.6Zm11.92-33.7s-6.37-12.5-7.2-14.32-2.16-4.27-3-6.3a18.09,18.09,0,0,1-.84-5.71h.59a8,8,0,0,0,.64.66c.32.31.66.61,1,.9a23.81,23.81,0,0,0,3.82,2.89l.58.41c1.54,1.1,3.31,2.1,4.19,4.08s.44,3.09,2,3.87l.55.28c.34.2.71.39,1.08.56-.68,2.26-1.52,5.36-2.2,7.93a20,20,0,0,0-.78,3C744.29,673.22,744.11,673.9,744.11,673.9ZM750,715.63a15.19,15.19,0,0,1-2.23,4.64,14.18,14.18,0,0,1-2.32,2,1.69,1.69,0,0,1-.25-2c.58-1.24,1.49-3,.83-4.8s-.33-1,.5-2.65a23.63,23.63,0,0,0,1.24-4.39c.33-1,1.16.83,1.82,1.74S750.57,713.73,750,715.63Zm23.15,10c1.17-1.16,2.76-2.81,3.18-3.28.67-.74,1.3-1.49.56-2.4s-.19-.8-.83-2.48a48.5,48.5,0,0,0-6.74-9.94c-1.87-1.88-3-3.29-4.3-2.32-.42.31-4.09-4.15-4.53-4.75l1-1a12.39,12.39,0,0,1-.74-1.33c-.17-.41.66-2.9,2-6.38s2.49-7.78,2.9-8.94,1.16-4.63,1.91-6.29,3.56-9.44,4.39-11.51.41-3.4,1.32-5,4.64-3.23,5.71-4.06c.15-.11.31-.25.49-.4,3.37.11,6.95.14,10.61,0,0,1.82.17,59,.25,62.71a21.65,21.65,0,0,0,1.49,7.13Z"/><path class="cls-16" d="M541.46,246.35a62,62,0,1,0-71.6,58.86l-7.61,27.44,30.31-28.07A62,62,0,0,0,541.46,246.35Z"/><path class="cls-17" d="M722.86,224.3A116.58,116.58,0,1,0,588.29,334.93L574,386.5l57-52.75A116.61,116.61,0,0,0,722.86,224.3Z"/><path class="cls-18" d="M241.61,253.27a72.79,72.79,0,1,0-84,69.08l-8.92,32.2,35.57-32.94A72.82,72.82,0,0,0,241.61,253.27Z"/><path class="cls-19" d="M263.28,159.32A137.6,137.6,0,1,1,411.51,301.8l12.1,62-62.2-67.29A137.64,137.64,0,0,1,263.28,159.32Z"/><path class="cls-20" d="M484.77,112.29a64.28,64.28,0,1,1,70,65.78l6,28.9-29.41-31.11A64.29,64.29,0,0,1,484.77,112.29Z"/><path class="cls-19" d="M662.08,278.46a54.94,54.94,0,1,1,59.81,56.23l5.11,24.7L701.86,332.8A54.94,54.94,0,0,1,662.08,278.46Z"/><path class="cls-19" d="M756.45,92.91a88.48,88.48,0,1,0-103.07,82.81l-11.28,39,43.68-39.55A88.53,88.53,0,0,0,756.45,92.91Z"/><path class="cls-16" d="M45.94,233.34a41.34,41.34,0,1,1,44.54,42.81l3.63,18.63L75.42,274.56A41.36,41.36,0,0,1,45.94,233.34Z"/><path class="cls-17" d="M139.69,153.37a87,87,0,1,1,93.74,90.11l7.66,39.21-39.34-42.55A87.07,87.07,0,0,1,139.69,153.37Z"/><path class="cls-20" d="M578.44,306.79A34.95,34.95,0,1,0,538.1,340l-4.28,15.46,17.07-15.81A35,35,0,0,0,578.44,306.79Z"/><path class="cls-18" d="M888.15,199.52a95,95,0,1,0-109.66,90.16l-11.65,42,46.43-43A95,95,0,0,0,888.15,199.52Z"/><path class="cls-16" d="M367.21,242.76a63.08,63.08,0,1,0-72.8,59.85l-7.74,27.9L317.49,302A63.09,63.09,0,0,0,367.21,242.76Z"/><path class="cls-19" d="M177.2,155.69A57.37,57.37,0,1,0,111,210.13l-7,25.39,28-26A57.39,57.39,0,0,0,177.2,155.69Z"/><path class="cls-16" d="M810.94,266.68A40,40,0,1,1,854,308.07l3.51,18-18.07-19.55A40,40,0,0,1,810.94,266.68Z"/><path class="cls-16" d="M63.28,214a31.65,31.65,0,1,0-36.54,30l-3.88,14,15.47-14.32A31.66,31.66,0,0,0,63.28,214Z"/><path class="cls-19" d="M969.11,201.49a50.91,50.91,0,1,0-58.76,48.31l-6.24,22.52,24.88-23A50.91,50.91,0,0,0,969.11,201.49Z"/></g></g></g></svg>